<?xml version="1.0" standalone="no"?>
<!DOCTYPE svg PUBLIC "-//W3C//DTD SVG 1.1//EN" "http://www.w3.org/Graphics/SVG/1.1/DTD/svg11.dtd" >
<svg xmlns="http://www.w3.org/2000/svg">
<metadata></metadata>
<defs>
<font id="webfontregular" horiz-adv-x="1136" >
<font-face units-per-em="2048" ascent="1638" descent="-410" />
<missing-glyph horiz-adv-x="567" />
<glyph horiz-adv-x="0" />
<glyph unicode="&#xd;" horiz-adv-x="681" />
<glyph unicode=" "  horiz-adv-x="567" />
<glyph unicode="&#x09;" horiz-adv-x="567" />
<glyph unicode="&#xa0;" horiz-adv-x="567" />
<glyph unicode="!" horiz-adv-x="567" d="M178 0v250h213v-250h-213zM178 373v1143h213v-1143h-213z" />
<glyph unicode="&#x22;" horiz-adv-x="665" d="M41 1516h225l-41 -607h-145zM401 1516h226l-41 -607h-146z" />
<glyph unicode="#" d="M61 418l5 172h206l35 254h-184l4 172h205l57 418h182l-57 -418h209l57 418h183l-58 -418h168l-4 -172h-188l-35 -254h166l-4 -172h-187l-59 -418h-180l57 418h-209l-59 -418h-181l58 418h-187zM455 590h209l34 254h-209z" />
<glyph unicode="$" d="M139 471h213q10 -123 77 -176t151 -53q100 0 152 66.5t52 166.5q0 49 -19.5 88t-44 61.5t-66.5 42t-66.5 26.5t-65.5 18q-137 43 -196 88q-127 98 -127 282q0 51 13 103.5t43 108t88 99.5t136 64v230h195v-230q131 -16 214 -107.5t89 -246.5h-213q-14 172 -180 172 q-82 0 -127 -58.5t-45 -134.5q0 -92 55 -129t188 -71q340 -82 342 -406q0 -59 -14 -119.5t-48 -124t-101.5 -110.5t-159.5 -62v-227h-195v227q-322 82 -340 412z" />
<glyph unicode="%" horiz-adv-x="1714" d="M106 1171.5q0 151.5 110 259t261.5 107.5t261 -107.5t109.5 -259t-109.5 -259t-261 -107.5t-261.5 107.5t-110 259zM291 1171.5q0 -77.5 54 -134t132 -56.5t132.5 56.5t54.5 134t-54.5 134t-132.5 56.5t-132 -56.5t-54 -134zM346 0l868 1516h138l-869 -1516h-137z M864 340q0 152 109.5 259.5t261 107.5t261.5 -107.5t110 -259.5t-110 -259.5t-261.5 -107.5t-261 107.5t-109.5 259.5zM1049 340q0 -78 54 -134t132 -56t132 56t54 134t-54 134t-132 56t-132 -56t-54 -134z" />
<glyph unicode="&#x26;" horiz-adv-x="1400" d="M70 424q0 137 73.5 253t216.5 179q-72 74 -108.5 139.5t-36.5 161.5q0 166 111.5 276.5t271.5 110.5q154 0 265.5 -109.5t111.5 -275.5q0 -242 -254 -364l201 -197l165 334h240l-248 -500l305 -311l-147 -150l-264 267q-178 -266 -441 -267q-195 0 -328.5 131t-133.5 322 zM291 424q0 -102 65.5 -176t175.5 -74q176 0 293 217l-319 316q-215 -74 -215 -283zM436 1157q0 -96 129 -215q100 53 144.5 99t44.5 124q0 86 -50.5 131t-107.5 45q-63 0 -111.5 -49t-48.5 -135z" />
<glyph unicode="'" horiz-adv-x="446" d="M111 1516h225l-41 -607h-143z" />
<glyph unicode="(" horiz-adv-x="833" d="M113 518q0 324 171 607.5t435 420.5v-264q-82 -74 -130 -125t-117 -147.5t-103.5 -219t-34.5 -270.5q0 -160 40 -294t113.5 -232t121.5 -146.5t122 -107.5v-266q-104 53 -207.5 145t-199 221t-153.5 307.5t-58 370.5z" />
<glyph unicode=")" horiz-adv-x="833" d="M102 1280v266q106 -55 211 -148t199 -222t151.5 -305.5t57.5 -368.5q0 -324 -171 -607.5t-435 -420.5v264q66 59 102.5 94t98 111.5t95 148.5t61.5 180.5t28 227.5q0 129 -31 245.5t-69 192.5t-102.5 152.5t-101.5 109.5t-94 80z" />
<glyph unicode="*" horiz-adv-x="1173" d="M197 1180l45 135l278 -94l-2 295h144l-7 -295l279 94l45 -135l-283 -88l178 -236l-116 -84l-170 242l-170 -242l-117 84l178 236z" />
<glyph unicode="+" horiz-adv-x="1228" d="M98 412v213h410v411h213v-411h409v-213h-409v-412h-213v412h-410z" />
<glyph unicode="," horiz-adv-x="567" d="M178 0v250h213v-227q0 -240 -213 -283v127q23 8 35 15t26.5 34t14.5 66v18h-76z" />
<glyph unicode="-" horiz-adv-x="573" d="M0 485v213h573v-213h-573z" />
<glyph unicode="." horiz-adv-x="567" d="M178 0v250h213v-250h-213z" />
<glyph unicode="/" horiz-adv-x="1021" d="M84 -205l590 1721h233l-590 -1721h-233z" />
<glyph unicode="0" d="M78 504v528q0 137 49 241.5t127 161t160 84t159 27.5q186 0 336 -134t150 -365v-560q0 -104 -21.5 -184t-89.5 -158q-156 -174 -383 -174q-231 0 -383 185q-104 127 -104 348zM291 487q0 -88 26.5 -153.5t61.5 -96t81 -48t69.5 -20.5t43.5 -3q119 0 205 96q31 37 47.5 79 t18.5 68.5t2 77.5v560q0 94 -31 159.5t-78 94t-87 40t-79 11.5q-45 0 -90 -14.5t-90 -46t-72.5 -95t-27.5 -149.5v-560z" />
<glyph unicode="1" d="M303 1321v195h436v-1516h-213v1321h-223z" />
<glyph unicode="2" d="M76 995q-2 127 32.5 227.5t87 159t120 97.5t125 52t110.5 13q211 0 345 -146.5t134 -342.5q0 -135 -55 -230.5t-156 -197.5l-422 -432h635v-195h-948v178l596 606q137 137 137 277q0 113 -70.5 201t-187.5 88q-104 0 -187 -79t-83 -237v-39h-213z" />
<glyph unicode="3" d="M45 446h213q4 -76 31.5 -131t61.5 -82.5t77 -44t67.5 -19.5t45.5 -3q121 0 196.5 87t75.5 191q0 121 -83 197t-200 76h-77v213h73q61 0 107.5 22.5t67 49t32.5 62.5t13.5 51t1.5 26q0 86 -57.5 147.5t-145.5 61.5q-18 0 -35.5 -2t-46.5 -14.5t-51.5 -34t-43 -63.5 t-26.5 -99h-213q6 98 42 173.5t84 119t107.5 70t104.5 35.5t84 9q178 0 294 -118.5t116 -301.5q0 -76 -23 -136t-47.5 -89t-69.5 -70q205 -131 205 -376q0 -221 -142.5 -351.5t-348.5 -130.5q-197 0 -342.5 135t-147.5 340z" />
<glyph unicode="4" d="M25 238v206l692 1072h213v-1084h160v-194h-160v-238h-213v238h-692zM270 432h447v729h-4z" />
<glyph unicode="5" d="M51 459h213q27 -131 106 -212t199.5 -81t211.5 96t91 236q0 143 -80.5 248.5t-213.5 105.5q-174 0 -273 -158l-184 43l127 779h692v-195h-516l-57 -336q92 61 211 62q225 0 366 -154t141 -379q0 -219 -144 -381t-374 -162q-213 0 -353 136.5t-163 351.5z" />
<glyph unicode="6" d="M51 487q0 174 115 363l426 666h252l-322 -498q57 10 90 10q211 0 349.5 -149.5t138.5 -362.5q0 -227 -149.5 -386t-372.5 -159q-129 0 -234.5 52.5t-167 133.5t-93.5 167t-32 163zM264 508q0 -143 89 -242.5t225 -99.5q131 0 220 99.5t89 228.5q0 143 -88 241.5 t-217 98.5q-131 0 -224.5 -96.5t-93.5 -229.5z" />
<glyph unicode="7" d="M145 1321v195h879v-195l-555 -1321h-238l572 1321h-658z" />
<glyph unicode="8" d="M88 446q0 242 199 390q-39 39 -59.5 64.5t-45 88t-24.5 137.5q0 178 124 298t289 120q168 0 288 -123t120 -293q0 -82 -25.5 -145t-48 -87.5t-61.5 -59.5q203 -135 203 -383q0 -201 -142.5 -341.5t-337.5 -140.5q-188 0 -333.5 133.5t-145.5 341.5zM301 436 q0 -113 78 -191.5t186 -78.5q115 0 192 83t77 185q0 127 -82 205t-185 78q-115 0 -190.5 -85t-75.5 -196zM371 1141q0 -78 53 -142.5t143 -64.5q94 0 146.5 63.5t52.5 151.5q0 74 -53.5 137.5t-143.5 63.5q-86 0 -142 -62.5t-56 -146.5z" />
<glyph unicode="9" d="M37 1001q0 223 148.5 383t371.5 160h4q129 0 234.5 -53t165 -134t91 -166t31.5 -161q0 -184 -116 -364l-422 -666h-252l321 498q-70 -8 -88 -9q-197 0 -343 143.5t-146 368.5zM250 1022q0 -137 89 -237.5t218 -100.5q139 0 226 102.5t87 221.5q0 143 -89 242.5t-222 99.5 t-221 -98.5t-88 -229.5z" />
<glyph unicode=":" horiz-adv-x="567" d="M178 0v250h213v-250h-213zM178 887v250h213v-250h-213z" />
<glyph unicode=";" horiz-adv-x="567" d="M178 0v250h213v-227q0 -240 -213 -283v127q23 8 35 15t26.5 34t14.5 66v18h-76zM178 887v250h213v-250h-213z" />
<glyph unicode="&#x3c;" horiz-adv-x="1228" d="M94 430v176l1041 447v-209l-764 -326l764 -325v-209z" />
<glyph unicode="=" horiz-adv-x="1228" d="M98 188v213h1032v-213h-1032zM98 635v213h1032v-213h-1032z" />
<glyph unicode="&#x3e;" horiz-adv-x="1228" d="M94 -16v209l764 325l-764 326v209l1041 -447v-176z" />
<glyph unicode="?" horiz-adv-x="1060" d="M66 1083q6 123 53 217.5t118.5 144.5t144.5 74.5t144 24.5q193 0 323 -139t130 -320q0 -90 -30.5 -163.5t-60.5 -106.5t-91 -88q-70 -61 -109 -126.5t-48 -103.5t-19 -108h-213q2 109 40.5 205t76.5 144t96 106q92 94 118.5 134t26.5 99q0 106 -70.5 179t-171.5 73 q-127 0 -202 -110q-33 -45 -43 -136h-213zM408 0v250h213v-250h-213z" />
<glyph unicode="@" horiz-adv-x="1556" d="M23 758q12 346 231 559t559 225q315 0 518 -182t203 -492q0 -225 -113.5 -387t-277.5 -162q-53 0 -107.5 30t-66.5 93h-4q-90 -123 -273 -123q-137 0 -228 101.5t-91 267.5q0 184 112.5 323.5t286.5 139.5q35 0 65.5 -5t52 -12.5t42 -20.5t33 -22.5t24.5 -24.5 t17.5 -22.5t13.5 -19.5l6 -14h4l21 112h151l-86 -473q-16 -102 -16 -121q6 -53 51 -53q98 0 153.5 103.5t65.5 287.5q0 244 -154.5 382t-400.5 138q-283 0 -456 -182t-173 -448q0 -84 16.5 -164t62.5 -166t116 -150.5t188.5 -105.5t268.5 -41q168 0 293.5 37t193.5 86 l80 -125q-279 -154 -567 -154q-213 0 -376 70t-255 185.5t-138 249.5t-46 280zM537 692q0 -98 49 -157.5t129 -59.5q127 0 198.5 94.5t71.5 237.5q0 188 -203 188q-100 0 -172.5 -84t-72.5 -219z" />
<glyph unicode="A" horiz-adv-x="1400" d="M27 0l575 1516h199l575 -1516h-235l-168 446h-545l-168 -446h-233zM506 649h391l-192 580h-5z" />
<glyph unicode="B" horiz-adv-x="1187" d="M154 0v1516h393q121 0 213 -35t139 -82t77 -110.5t37 -107.5t7 -85q0 -78 -26.5 -140.5t-49 -88t-59.5 -58.5q225 -131 225 -369q0 -53 -11.5 -106t-46 -115.5t-88 -109t-146.5 -78t-212 -31.5h-452zM375 203h239q147 0 211 77.5t64 159.5q0 78 -53 150q-31 41 -79 63.5 t-82 25.5t-87 3h-213v-479zM375 885h180q139 0 191.5 63.5t52.5 149.5q0 215 -256 215h-168v-428z" />
<glyph unicode="C" horiz-adv-x="1601" d="M78 764q0 328 229.5 554t550.5 226q260 0 463 -147q135 -97 233 -269h-266q-188 213 -426 213q-236 0 -399.5 -170t-163.5 -409q0 -242 167 -415t392 -173q244 0 414 201h272q-117 -207 -304 -305.5t-384 -98.5q-322 0 -550 234.5t-228 558.5z" />
<glyph unicode="D" horiz-adv-x="1499" d="M133 0v1516h492q416 0 618 -279q156 -217 156 -483q0 -154 -53.5 -303.5t-137.5 -231.5q-221 -219 -592 -219h-483zM354 203h264q106 0 200.5 28.5t177.5 89t132.5 172t49.5 261.5q0 92 -30 185t-91.5 179t-174 140.5t-259.5 54.5h-269v-1110z" />
<glyph unicode="E" horiz-adv-x="1064" d="M133 0v1516h817v-203h-596v-447h596v-202h-596v-461h596v-203h-817z" />
<glyph unicode="F" horiz-adv-x="987" d="M133 0v1516h766v-203h-545v-455h545v-203h-545v-655h-221z" />
<glyph unicode="G" horiz-adv-x="1701" d="M78 754q0 330 224 560t550 230q203 0 388.5 -106t291.5 -303h-258q-35 39 -62.5 64.5t-82 63t-123 58t-146.5 20.5q-233 0 -397 -174t-164 -413q0 -244 171 -412t392 -168q39 0 84 8t134 39t171 116t133 214h-706v203h958q-2 -182 -72.5 -335t-183 -248t-249 -147.5 t-277.5 -52.5q-328 0 -552 230.5t-224 552.5z" />
<glyph unicode="H" horiz-adv-x="1372" d="M154 0v1516h221v-654h624v654h222v-1516h-222v659h-624v-659h-221z" />
<glyph unicode="I" horiz-adv-x="526" d="M154 0v1516h221v-1516h-221z" />
<glyph unicode="J" horiz-adv-x="997" d="M0 303h227q49 -129 193 -129q137 0 178 129q16 61 16 113v1100h222v-1088q0 -125 -37 -215q-49 -117 -151.5 -179.5t-229.5 -62.5q-152 0 -271.5 91.5t-146.5 240.5z" />
<glyph unicode="K" horiz-adv-x="1265" d="M184 0v1516h222v-752v-764h-222zM410 764l575 752h272l-591 -752l591 -764h-272z" />
<glyph unicode="L" horiz-adv-x="909" d="M162 0v1516h221v-1313h526v-203h-747z" />
<glyph unicode="M" horiz-adv-x="1912" d="M154 0v1516h348l454 -1162l457 1162h348v-1516h-221v1280h-6l-510 -1280h-133l-512 1280h-4v-1280h-221z" />
<glyph unicode="N" horiz-adv-x="1511" d="M154 0v1516h241l738 -1154h4v1154h221v-1516h-230l-749 1171h-4v-1171h-221z" />
<glyph unicode="O" horiz-adv-x="1732" d="M78 757.5q0 317.5 225 552t563 234.5q334 0 561.5 -231t227.5 -559q0 -315 -228.5 -549t-560.5 -234q-334 0 -561 234.5t-227 552zM299 758q0 -96 35 -195.5t101.5 -188.5t179 -144.5t252 -55.5t252 56.5t179 144.5t101.5 185.5t35 191.5q0 104 -37 205.5t-104.5 188.5 t-179.5 141t-247 54q-139 0 -251.5 -56t-179 -145t-101.5 -188.5t-35 -193.5z" />
<glyph unicode="P" horiz-adv-x="1144" d="M133 0v1516h438q264 0 399.5 -124t135.5 -335t-135 -335t-400 -124h-217v-598h-221zM354 801h217q170 0 242 75.5t72 180t-72 180.5t-242 76h-217v-512z" />
<glyph unicode="Q" horiz-adv-x="1714" d="M78 762q0 328 225 555t555 227t555 -232.5t225 -553.5q0 -270 -186 -529q57 -33 99 -43t120 -10v-205q-90 0 -168 20.5t-117.5 41t-95.5 55.5q-211 -117 -434 -117q-322 0 -550 230.5t-228 560.5zM299 748q0 -66 20 -148q117 47 289 47q316 0 664 -285q145 182 145 396 q0 236 -160.5 409.5t-394.5 173.5q-236 0 -399.5 -174t-163.5 -419zM412 410q80 -111 198.5 -173.5t254 -62.5t229.5 68q-269 202 -504 202h-2q-102 0 -176 -34z" />
<glyph unicode="R" horiz-adv-x="1216" d="M133 0v1516h469q270 0 404 -127q139 -133 139 -359q0 -113 -37 -202t-87 -136t-114.5 -77.5t-111.5 -40t-84 -9.5l424 -565h-277l-500 702h-4v-702h-221zM354 733h152q43 0 80 2t104.5 18.5t113.5 45t83 89t37 142.5q0 113 -82 198t-254 85h-234v-580z" />
<glyph unicode="S" horiz-adv-x="1021" d="M37 449h221q0 -23 4 -49.5t18.5 -68.5t39 -75t72.5 -57.5t112 -24.5q106 0 175 69.5t69 186.5q0 31 -7.5 58.5t-14.5 46t-28.5 38t-31 29.5t-41 25.5t-38.5 18.5t-44 17.5t-39 14.5q-154 59 -212.5 90t-109.5 80q-102 100 -102 285q0 152 112.5 281.5t311.5 129.5 q190 0 312 -115.5t122 -306.5h-221q0 115 -65.5 167t-147.5 52q-92 0 -147.5 -66.5t-55.5 -139.5q0 -20 4 -40t10.5 -35.5t17.5 -29.5t19 -24.5t25.5 -21.5t26 -16t28 -13.5t25.5 -11.5t25.5 -10t21.5 -7q16 -6 64 -23.5t72 -27t69 -29t68.5 -37.5t59 -46t55 -59.5t39 -71.5 t29 -91.5t9.5 -110.5q0 -201 -129 -330t-336 -129q-82 0 -162 28t-149.5 83t-112.5 150.5t-43 216.5z" />
<glyph unicode="T" horiz-adv-x="833" d="M14 1313v203h803v-203h-291v-1313h-221v1313h-291z" />
<glyph unicode="U" horiz-adv-x="1316" d="M150 489v1027h221v-1020q0 -80 22.5 -141.5t54 -94.5t73.5 -53.5t74 -26.5t62.5 -6t62.5 6t74 26.5t73.5 53.5t54 94.5t22.5 141.5v1020h221v-1027q0 -242 -153 -389q-156 -129 -354.5 -129t-354.5 129q-154 147 -153 389z" />
<glyph unicode="V" horiz-adv-x="1400" d="M25 1516h237l440 -1137l441 1137h233l-608 -1516h-133z" />
<glyph unicode="W" horiz-adv-x="1855" d="M33 1516h229l289 -1141h4l293 1141h162l288 -1133h5l294 1133h226l-424 -1516h-195l-274 1059h-4l-275 -1059h-194z" />
<glyph unicode="X" horiz-adv-x="1327" d="M23 0l501 760l-501 756h264l375 -574l378 574h263l-506 -756l501 -760h-260l-376 578l-381 -578h-258z" />
<glyph unicode="Y" horiz-adv-x="1214" d="M27 1516h247l334 -711l332 711h246l-467 -969v-547h-221v547z" />
<glyph unicode="Z" horiz-adv-x="946" d="M8 0v203l658 1110h-623v203h870v-203l-653 -1110h680v-203h-932z" />
<glyph unicode="[" horiz-adv-x="833" d="M256 29v927q0 123 39 226.5t103.5 173t132 116t143.5 74.5v-248q-121 -76 -160 -165t-39 -199v-830q0 -53 4 -86.5t20.5 -91t60.5 -107.5t114 -93v-252q-180 72 -299 224t-119 331z" />
<glyph unicode="\" horiz-adv-x="1021" d="M115 1516h233l590 -1721h-233z" />
<glyph unicode="]" horiz-adv-x="833" d="M160 -274q70 43 113.5 93t60 107.5t20.5 91t4 86.5v830q0 111 -38.5 200t-159.5 164v248q76 -29 143.5 -75t132 -115.5t103.5 -173t39 -226.5v-927q0 -178 -119 -330.5t-299 -224.5v252z" />
<glyph unicode="^" horiz-adv-x="1228" d="M135 727l383 789h193l383 -789h-213l-267 573l-266 -573h-213z" />
<glyph unicode="_" horiz-adv-x="1024" d="M0 -154h1024v-102h-1024v102z" />
<glyph unicode="`" d="M254 1513l86 154l461 -252l-90 -164z" />
<glyph unicode="a" horiz-adv-x="1419" d="M78 563q0 106 38 211t109.5 194t190.5 143t264 54q121 0 223.5 -49t161.5 -141h4v160h213v-1135h-213v176h-4q-59 -100 -161.5 -152.5t-223.5 -52.5q-274 0 -438 177.5t-164 414.5zM291 565q0 -158 111.5 -278.5t275.5 -120.5q166 0 280.5 117.5t114.5 281.5 q0 178 -112.5 292t-280.5 114q-182 0 -285.5 -127t-103.5 -279z" />
<glyph unicode="b" horiz-adv-x="1409" d="M137 0v1516h213v-539h4q135 188 389 188q233 0 410.5 -171t177.5 -427q0 -248 -168 -422t-415 -174q-98 0 -208 44t-188 149h-4v-164h-211zM344 571q0 -182 117 -293.5t270 -111.5q156 0 271.5 117.5t115.5 283.5q0 164 -111.5 284t-275.5 120q-168 0 -277.5 -121 t-109.5 -279z" />
<glyph unicode="c" horiz-adv-x="1284" d="M78 569q0 242 161.5 419t422.5 177q219 0 368.5 -128.5t188.5 -278.5h-236q-104 213 -319 213q-129 0 -217.5 -66.5t-122 -153.5t-33.5 -182q0 -160 98 -281.5t270 -121.5q115 0 197 57.5t125 151.5h238q-63 -186 -216 -295t-344 -109q-264 0 -422.5 181.5t-158.5 416.5z " />
<glyph unicode="d" horiz-adv-x="1406" d="M78 563q0 106 37 211t106.5 194t186 143t260.5 54q117 0 220 -46t165 -124h4v521h213v-1516h-197v162h-4q-137 -190 -401 -191q-180 0 -318.5 87t-205 219.5t-66.5 285.5zM291 565q0 -158 111.5 -278.5t275.5 -120.5q166 0 280.5 117.5t114.5 281.5q0 178 -112.5 292 t-280.5 114q-182 0 -285.5 -127t-103.5 -279z" />
<glyph unicode="e" horiz-adv-x="1314" d="M80 569q0 252 170 424t412 172q233 0 404 -168t173 -413q0 -66 -6 -109h-940q37 -154 144.5 -231.5t228.5 -77.5q111 0 196.5 55t126.5 135h213q-51 -137 -151.5 -228t-197.5 -124t-196 -33q-240 0 -408.5 177.5t-168.5 420.5zM293 639h733q-8 129 -113.5 230.5 t-253 101.5t-253 -101.5t-113.5 -230.5z" />
<glyph unicode="f" horiz-adv-x="567" d="M43 940v195h100v55q0 172 136 264q66 39 121 50.5t155 11.5v-195q-199 0 -199 -131v-55h199v-195h-199v-940h-213v940h-100z" />
<glyph unicode="g" horiz-adv-x="1427" d="M78 571q0 98 39 199.5t110.5 192t192.5 146.5t268 56q121 0 225.5 -46t165.5 -115v131h213v-981q0 -281 -162.5 -440.5t-451.5 -159.5q-195 0 -341.5 96t-217.5 262h237q119 -164 324 -164q182 2 290.5 97.5t108.5 304.5h-4q-131 -178 -391 -179q-178 0 -320.5 93.5 t-214 229.5t-71.5 277zM291 567q0 -158 112.5 -279.5t278.5 -121.5q98 0 178 41t126 104.5t69.5 130t23.5 123.5q0 113 -42 197t-107.5 127t-128 62.5t-117.5 19.5q-166 0 -279.5 -120t-113.5 -284z" />
<glyph unicode="h" horiz-adv-x="1273" d="M135 0v1516h213v-502h4q101 151 315 151h3q270 0 401 -202q70 -113 72 -291v-672h-213v616q0 354 -283 355q-137 0 -218 -92.5t-81 -260.5v-618h-213z" />
<glyph unicode="i" horiz-adv-x="487" d="M137 0v1135h213v-1135h-213zM137 1266v250h213v-250h-213z" />
<glyph unicode="j" horiz-adv-x="509" d="M23 -223q41 2 68.5 17.5t41.5 33.5t21.5 57t8.5 65.5t1 82.5v1102h213v-1102q0 -111 -4 -161t-32 -110.5t-85 -109.5q-115 -98 -233 -98v223zM164 1266v250h213v-250h-213z" />
<glyph unicode="k" horiz-adv-x="1118" d="M158 0v1516h213v-928v-588h-213zM375 588l403 547h252l-412 -535l478 -600h-267z" />
<glyph unicode="l" horiz-adv-x="487" d="M137 0v1516h213v-1516h-213z" />
<glyph unicode="m" horiz-adv-x="1988" d="M137 0v1135h197v-123h4q2 2 13 15t16.5 18.5t18.5 19.5t23.5 21.5t28 19.5t32.5 19.5t37.5 15.5t45 13t51.5 8t60 3q111 0 211 -50t141 -140q23 35 41 56.5t62 58t114 56t158 19.5q281 0 399 -204q63 -115 63 -277v-684h-213v631q0 340 -268 340q-43 0 -80 -9.5 t-63.5 -21.5t-47 -36.5t-33.5 -41t-22.5 -51.5t-13.5 -48t-7 -50t-3 -42v-38v-633h-213v631v33q0 121 -47 200q-70 106 -211 107q-281 0 -281 -338v-633h-213z" />
<glyph unicode="n" horiz-adv-x="1277" d="M135 0v1135h199v-121h4q114 151 329 151h3q270 0 401 -202q70 -113 72 -291v-672h-213v616q0 354 -283 355q-137 0 -218 -92.5t-81 -260.5v-618h-213z" />
<glyph unicode="o" horiz-adv-x="1382" d="M78 575q0 238 177 414t435 176q256 0 434.5 -175t178.5 -419q0 -143 -71 -278t-215.5 -228.5t-326.5 -93.5q-270 0 -441 186.5t-171 417.5zM291 569.5q0 -159.5 113.5 -281.5t285.5 -122q170 0 285 120.5t115 284.5q0 158 -113 279t-287 121t-286.5 -121t-112.5 -280.5z " />
<glyph unicode="p" horiz-adv-x="1404" d="M137 -379v1514h195v-174h4q140 204 400 204h3q272 0 430 -183t158 -429q0 -229 -158.5 -405.5t-414.5 -176.5q-158 0 -257.5 59.5t-142.5 133.5h-4v-543h-213zM346 569q0 -172 111.5 -287.5t273.5 -115.5q156 0 269.5 112.5t113.5 286.5q0 160 -110.5 283t-278.5 123 q-164 0 -271.5 -120t-107.5 -282z" />
<glyph unicode="q" horiz-adv-x="1406" d="M80 569q0 240 164 418t424 178q90 0 168.5 -24.5t126 -59t73 -59.5t33.5 -39h4v152h197v-1514h-213v537h-4q-57 -86 -161 -136.5t-218 -50.5q-266 0 -430 181.5t-164 416.5zM293 569q0 -166 110.5 -284.5t282.5 -118.5q168 0 278.5 118.5t110.5 278.5q0 170 -111.5 289 t-281.5 119q-172 0 -280.5 -119t-108.5 -283z" />
<glyph unicode="r" horiz-adv-x="655" d="M137 0v1135h199v-103h4q88 125 289 133v-219q-76 0 -154 -41q-125 -68 -125 -284v-621h-213z" />
<glyph unicode="s" horiz-adv-x="868" d="M41 373h213q6 -96 55 -151.5t137 -55.5q74 0 119 42t45 114q0 68 -48 102.5t-150 71.5q-8 2 -23 8q-66 23 -101.5 40t-90 56t-80 98.5t-25.5 139.5q0 131 100.5 229t256.5 98q74 0 147.5 -28.5t136 -107t64.5 -195.5h-213q-18 137 -146 137q-59 0 -96 -34t-37 -87 q0 -45 27.5 -75t57.5 -42t91 -31q31 -10 47.5 -15t58.5 -22.5t67.5 -34t61.5 -47t56.5 -63.5t35.5 -82t15 -104q0 -156 -102.5 -259.5t-278.5 -103.5q-59 0 -123.5 20.5t-129 62.5t-106.5 125t-42 194z" />
<glyph unicode="t" horiz-adv-x="567" d="M8 940v195h154v381h213v-381h186v-195h-186v-940h-213v940h-154z" />
<glyph unicode="u" horiz-adv-x="1277" d="M135 520v615h213v-615q0 -197 76 -275.5t207 -78.5q137 0 217 90t80 270v609h213v-1135h-195v123h-4q-43 -72 -133 -112t-201 -40q-195 0 -323 113q-150 129 -150 436z" />
<glyph unicode="v" horiz-adv-x="1099" d="M27 1135h227l297 -811h4l291 811h227l-446 -1135h-150z" />
<glyph unicode="w" horiz-adv-x="1628" d="M27 1135h227l252 -738h4l235 738h140l235 -738h4l250 738h228l-420 -1135h-119l-246 764h-4l-246 -764h-116z" />
<glyph unicode="x" horiz-adv-x="1060" d="M4 0l393 582l-379 553h258l250 -373l248 373h258l-370 -553l395 -582h-250l-281 403l-274 -403h-248z" />
<glyph unicode="y" horiz-adv-x="1175" d="M20 1135h230l334 -881l342 881h229l-627 -1514h-221l166 402z" />
<glyph unicode="z" horiz-adv-x="833" d="M6 0v166l545 774h-492v195h725v-207l-514 -733h557v-195h-821z" />
<glyph unicode="{" horiz-adv-x="681" d="M29 473v176q63 0 125.5 43t62.5 127v420q0 131 85 204t196 73h133v-162h-90q-111 0 -111 -150v-413q0 -113 -66.5 -166.5t-136.5 -59.5v-6q203 -27 203 -242v-411q0 -150 111 -150h90v-162h-133q-111 0 -196 73t-85 204v418q0 92 -62.5 138t-125.5 46z" />
<glyph unicode="|" d="M453 -205v1721h231v-1721h-231z" />
<glyph unicode="}" horiz-adv-x="681" d="M51 -244h90q111 0 111 150v413q0 113 66.5 166.5t136.5 59.5v6q-203 27 -203 242v411q0 150 -111 150h-90v162h133q111 0 196 -73t85 -204v-418q0 -92 62.5 -138t125.5 -46v-176q-63 0 -125.5 -43t-62.5 -127v-420q0 -131 -85 -204t-196 -73h-133v162z" />
<glyph unicode="~" horiz-adv-x="1228" d="M141 510q92 176 256 176q80 0 228 -65q14 -6 43.5 -19.5t47 -21t41 -16.5t42 -13t35.5 -4q39 0 74.5 24.5t55 50t50.5 72.5l73 -168q-41 -55 -67.5 -85.5t-77.5 -60.5t-111 -30q-86 0 -208 68q-127 72 -236 71q-104 0 -172 -147z" />
<glyph unicode="&#xa1;" horiz-adv-x="567" d="M176 -379v1137h213v-1137h-213zM176 887v250h213v-250h-213z" />
<glyph unicode="&#xa2;" d="M78 836q0 178 108.5 312t298.5 171v197h195v-197q137 -20 234.5 -105.5t144.5 -220.5h-244q-25 51 -84 86t-145 35q-143 0 -219 -91t-76 -198q0 -111 81 -197.5t214 -86.5q149 -1 227 112h240q-43 -123 -141.5 -202.5t-231.5 -108.5v-201h-195v201q-121 27 -206.5 87 t-126.5 136t-57.5 141.5t-16.5 129.5z" />
<glyph unicode="&#xa3;" d="M18 670v194h82q-47 84 -47 185q0 209 135.5 352t366.5 143q174 0 316.5 -107.5t181.5 -301.5h-232q-68 215 -272 215q-129 0 -206 -88t-77 -213q0 -109 76 -185h449v-194h-287q109 -94 108 -297q0 -72 -26 -178h67q135 0 193.5 76.5t58.5 170.5q1 54 -28 115h229 q12 -66 12 -113q0 -76 -22.5 -148.5t-71.5 -142t-144.5 -111.5t-226.5 -42h-567v195h270q41 78 43 178q0 197 -151 297h-230z" />
<glyph unicode="&#xa4;" d="M55 276l146 142q-74 109 -74 244q2 135 74 243l-144 137l127 134l144 -144q96 68 243 68q131 0 238 -70l143 144l131 -130l-141 -139q68 -117 66 -243q2 -135 -66 -240l141 -143l-131 -132l-143 142q-109 -70 -238 -70q-131 0 -243 72l-144 -144zM322 659.5 q0 -102.5 72.5 -174t173 -71.5t173 71.5t72.5 174t-72.5 174t-173 71.5t-173 -71.5t-72.5 -174z" />
<glyph unicode="&#xa5;" d="M0 1516h231l336 -611l338 611h232l-295 -521h254v-176h-342l-80 -145v-88h422v-176h-422v-410h-213v410h-420v176h420v88l-80 145h-340v176h252z" />
<glyph unicode="&#xa6;" d="M453 -205v688h231v-688h-231zM453 827v689h231v-689h-231z" />
<glyph unicode="&#xa7;" horiz-adv-x="1173" d="M84 655q0 207 190 318q-80 113 -79 215q0 129 101 242.5t292 113.5q66 0 127 -17.5t124.5 -58.5t108 -120.5t56.5 -190.5h-213q-33 184 -195 184q-104 0 -146 -54t-42 -113q0 -41 24.5 -75t51 -50.5t67.5 -36.5l278 -146q53 -27 86 -47t81 -61t73 -96.5t25 -122.5 q0 -193 -185 -316q121 -106 121 -264q0 -184 -128 -299t-314 -115q-182 0 -311.5 117t-139.5 326h213q8 -109 69.5 -174.5t174.5 -65.5q109 0 166 59.5t57 145.5q0 35 -8 60.5t-51 65.5t-125 83l-314 162q-51 27 -78.5 45t-70.5 58t-64.5 97.5t-21.5 130.5zM297 674 q0 -109 104 -162l367 -188q57 47 85 87t28 101q0 59 -32 94t-106 74l-342 174q-104 -68 -104 -180z" />
<glyph unicode="&#xa8;" d="M303 1303v249h213v-249h-213zM621 1303v249h213v-249h-213z" />
<glyph unicode="&#xa9;" horiz-adv-x="1638" d="M37 758q0 322 228 552t556 230q324 0 552.5 -230.5t228.5 -551.5q0 -324 -229.5 -553.5t-551.5 -229.5q-328 0 -556 229.5t-228 553.5zM201 758q0 -260 180 -443.5t438 -183.5q256 0 437.5 183.5t181.5 443.5q0 258 -179.5 442t-439.5 184q-262 0 -440 -184t-178 -442z M391 760q0 203 121 335t319 132q160 0 270 -92.5t124 -219.5h-154q-55 166 -240 166q-123 0 -204.5 -91t-81.5 -230q0 -150 82 -236t204 -86q190 0 240 166h154q-14 -127 -124 -219t-270 -92q-199 0 -319.5 132t-120.5 335z" />
<glyph unicode="&#xaa;" horiz-adv-x="788" d="M27 1210q0 129 89 231.5t246 102.5q57 0 106.5 -25.5t72.5 -62.5h4v72h164v-631h-164v72h-4q-18 -35 -69.5 -61.5t-113.5 -26.5q-150 0 -240.5 98t-90.5 231zM190 1210.5q0 -69.5 49.5 -123t120.5 -53.5q80 0 133.5 48t53.5 130q0 78 -52.5 128.5t-132.5 50.5 q-82 0 -127 -55.5t-45 -125z" />
<glyph unicode="&#xab;" horiz-adv-x="757" d="M68 483v211l280 279v-232l-153 -151l153 -152v-229zM410 483v211l280 279v-232l-153 -151l153 -152v-229z" />
<glyph unicode="&#xac;" horiz-adv-x="1228" d="M98 635v213h1032v-627h-212v414h-820z" />
<glyph unicode="&#xad;" horiz-adv-x="573" d="M0 485v213h573v-213h-573z" />
<glyph unicode="&#xae;" horiz-adv-x="1638" d="M37 758q0 322 228 552t556 230q324 0 552.5 -230.5t228.5 -551.5q0 -324 -229.5 -553.5t-551.5 -229.5q-328 0 -556 229.5t-228 553.5zM201 758q0 -260 180 -443.5t438 -183.5q256 0 437.5 183.5t181.5 443.5q0 258 -179.5 442t-439.5 184q-262 0 -440 -184t-178 -442z M485 303v895h377q31 0 55.5 -1t78 -14.5t89 -37t64.5 -72.5t29 -119q0 -178 -166 -217v-4q86 -25 115.5 -76t33.5 -147q6 -121 10.5 -150.5t18.5 -56.5h-154q-23 35 -26 166q-4 109 -40 146.5t-149 46.5h-182v-359h-154zM639 805h184q37 0 60.5 3t61.5 14.5t58.5 43 t20.5 82.5q-12 104 -180 105h-205v-248z" />
<glyph unicode="&#xb0;" horiz-adv-x="819" d="M117 1165q0 123 85 208t207.5 85t207.5 -85t85 -208t-85 -208t-207.5 -85t-207.5 85t-85 208zM244 1167q0 -70 49 -122t116.5 -52t116.5 52.5t49 121.5q0 68 -49 119t-116.5 51t-116.5 -51t-49 -119z" />
<glyph unicode="&#xb1;" horiz-adv-x="1228" d="M98 -106v212h1032v-212h-1032zM98 573v213h410v332h213v-332h409v-213h-409v-331h-213v331h-410z" />
<glyph unicode="&#xb2;" horiz-adv-x="718" d="M51 1196v41q0 119 85 209t212 90q129 0 215 -89t86 -210q0 -55 -21.5 -105.5t-41 -76t-58.5 -66.5l-225 -227h348v-156h-594v127l349 352q80 80 79 152q0 55 -35.5 99t-95.5 44q-63 0 -101 -43t-38 -104v-37h-164z" />
<glyph unicode="&#xb3;" horiz-adv-x="718" d="M33 885h164q4 -47 22.5 -79t45 -44t44 -16.5t35.5 -4.5q66 0 102.5 41t36.5 99q0 63 -43 102t-104 39h-53v156h51q31 0 53.5 11t32.5 24.5t15 31t6 25.5t1 14q0 41 -25.5 68.5t-72.5 27.5q-37 0 -65.5 -23.5t-30.5 -78.5h-164q0 131 98 203q74 55 162 55q98 0 180 -71.5 t82 -192.5q0 -43 -15.5 -80t-28.5 -51.5t-38 -38.5q123 -72 123 -221q0 -129 -94 -212t-217 -83q-117 0 -210 82t-93 217z" />
<glyph unicode="&#xb4;" d="M336 1405l457 262l90 -166l-461 -250z" />
<glyph unicode="&#xb6;" horiz-adv-x="1306" d="M4 1061q0 203 129 288t363 85h600v-1825h-213v1661h-217v-1661h-213v1093q-211 0 -330 97.5t-119 261.5z" />
<glyph unicode="&#xb8;" d="M373 -336h108q23 -63 84 -63q37 0 61.5 22.5t24.5 61.5q0 37 -25.5 58t-60.5 21q-37 0 -69 -28l-70 65l66 199h106l-43 -139q6 0 20.5 1t20.5 1q68 0 118 -48t50 -124q0 -78 -54.5 -136.5t-146.5 -58.5q-68 0 -125 43t-65 125z" />
<glyph unicode="&#xb9;" horiz-adv-x="718" d="M199 1360v156h290v-910h-163v754h-127z" />
<glyph unicode="&#xba;" horiz-adv-x="788" d="M53 1217q0 131 98.5 229t241.5 98q141 0 240.5 -97.5t99.5 -232.5q0 -125 -94 -229t-246 -104q-150 0 -245 103t-95 233zM217 1212q0 -70 50 -124t126 -54t126 54t50 126q0 70 -49 123.5t-127 53.5t-127 -53.5t-49 -125.5z" />
<glyph unicode="&#xbb;" horiz-adv-x="757" d="M68 209v229l153 152l-153 151v232l280 -279v-211zM410 209v229l153 152l-153 151v232l280 -279v-211z" />
<glyph unicode="&#xbc;" horiz-adv-x="1433" d="M33 1360v156h291v-910h-164v754h-127zM260 0l682 1516h150l-682 -1516h-150zM737 141v142l426 626h140v-628h98v-140h-98v-141h-144v141h-422zM907 281h252v389h-4z" />
<glyph unicode="&#xbd;" horiz-adv-x="1462" d="M33 1360v156h291v-910h-164v754h-127zM207 0l688 1516h149l-688 -1516h-149zM829 590v41q0 119 85 209t212 90q129 0 215 -89t86 -210q0 -55 -21.5 -105.5t-40.5 -76t-58 -66.5l-226 -227h349v-156h-594v127l348 352q80 80 80 152q0 55 -36 99t-95 44q-63 0 -101.5 -43 t-38.5 -104v-37h-164z" />
<glyph unicode="&#xbe;" horiz-adv-x="1599" d="M33 885h164q4 -47 22.5 -79t45 -44t44 -16.5t35.5 -4.5q66 0 102.5 41t36.5 99q0 63 -43 102t-104 39h-53v156h51q31 0 53.5 11t32.5 24.5t15 31t6 25.5t1 14q0 41 -25.5 68.5t-72.5 27.5q-37 0 -65.5 -23.5t-30.5 -78.5h-164q0 131 98 203q74 55 162 55q98 0 180 -71.5 t82 -192.5q0 -43 -15.5 -80t-28.5 -51.5t-38 -38.5q123 -72 123 -221q0 -129 -94 -212t-217 -83q-117 0 -210 82t-93 217zM426 0l682 1516h149l-682 -1516h-149zM903 141v142l426 626h139v-628h99v-140h-99v-141h-143v141h-422zM1073 281h252v389h-4z" />
<glyph unicode="&#xbf;" horiz-adv-x="1060" d="M82 51q0 90 30.5 164t60.5 106.5t91 88.5q70 61 109 126.5t48 103.5t19 108h213q-2 -109 -41 -205.5t-76.5 -144.5t-95.5 -105q-92 -94 -118.5 -134t-26.5 -100q0 -106 70.5 -179t171.5 -73q127 0 202 111q33 45 43 135h213q-6 -123 -53 -217t-118.5 -144t-144.5 -75 t-144 -25q-193 0 -323 140.5t-130 318.5zM440 887v250h213v-250h-213z" />
<glyph unicode="&#xc0;" horiz-adv-x="1400" d="M27 0l575 1516h199l575 -1516h-235l-168 446h-545l-168 -446h-233zM387 1843l86 154l461 -252l-90 -164zM506 649h391l-192 580h-5z" />
<glyph unicode="&#xc1;" horiz-adv-x="1400" d="M27 0l575 1516h199l575 -1516h-235l-168 446h-545l-168 -446h-233zM469 1735l457 262l90 -166l-461 -250zM506 649h391l-192 580h-5z" />
<glyph unicode="&#xc2;" horiz-adv-x="1400" d="M27 0l575 1516h199l575 -1516h-235l-168 446h-545l-168 -446h-233zM313 1624l285 277h205l287 -277h-244l-141 141l-148 -141h-244zM506 649h391l-192 580h-5z" />
<glyph unicode="&#xc3;" horiz-adv-x="1400" d="M27 0l575 1516h199l575 -1516h-235l-168 446h-545l-168 -446h-233zM326 1784q125 80 211 80q23 0 145.5 -28t142.5 -28q47 0 164 58l88 -129q-115 -94 -223 -95q-25 0 -146.5 27t-142.5 27q-53 0 -143 -45zM506 649h391l-192 580h-5z" />
<glyph unicode="&#xc4;" horiz-adv-x="1400" d="M27 0l575 1516h199l575 -1516h-235l-168 446h-545l-168 -446h-233zM436 1632v250h213v-250h-213zM506 649h391l-192 580h-5zM754 1632v250h213v-250h-213z" />
<glyph unicode="&#xc5;" horiz-adv-x="1400" d="M27 0l575 1516h199l575 -1516h-235l-168 446h-545l-168 -446h-233zM475 1784q0 94 66.5 160.5t158.5 66.5q94 0 161 -66.5t67 -160.5q0 -92 -66.5 -158.5t-161.5 -66.5q-92 0 -158.5 66.5t-66.5 158.5zM506 649h391l-192 580h-5zM596 1784q0 -43 30.5 -74t73.5 -31 q45 0 76 31t31 74q0 45 -31 75.5t-76 30.5q-43 0 -73.5 -30.5t-30.5 -75.5z" />
<glyph unicode="&#xc6;" horiz-adv-x="1904" d="M0 0l1018 1516h756v-203h-517v-447h517v-202h-517v-461h517v-203h-738v420h-499l-277 -420h-260zM682 623h354v565h-2h-4z" />
<glyph unicode="&#xc7;" horiz-adv-x="1601" d="M78 764q0 328 229.5 554t550.5 226q260 0 463 -147q135 -96 233 -269h-266q-188 213 -426 213q-236 0 -399.5 -170t-163.5 -409q0 -242 167 -415t392 -173q244 0 414 201h272q-117 -207 -304 -305.5t-384 -98.5h-6l-35 -110q6 0 20.5 1t20.5 1q68 0 118 -48t50 -124 q0 -78 -54.5 -136.5t-146.5 -58.5q-68 0 -125 43t-65 125h108q23 -63 84 -63q37 0 61.5 22.5t24.5 61.5q0 37 -25.5 58t-60.5 21q-37 0 -69 -28l-70 65l59 181q-283 41 -475 264t-192 518z" />
<glyph unicode="&#xc8;" horiz-adv-x="1064" d="M133 0v1516h817v-203h-596v-447h596v-202h-596v-461h596v-203h-817zM219 1853l86 154l461 -252l-90 -164z" />
<glyph unicode="&#xc9;" horiz-adv-x="1064" d="M133 0v1516h817v-203h-596v-447h596v-202h-596v-461h596v-203h-817zM301 1745l457 262l90 -166l-461 -250z" />
<glyph unicode="&#xca;" horiz-adv-x="1064" d="M133 0v1516h817v-203h-596v-447h596v-202h-596v-461h596v-203h-817zM145 1634l285 277h205l287 -277h-244l-141 142l-148 -142h-244z" />
<glyph unicode="&#xcb;" horiz-adv-x="1064" d="M133 0v1516h817v-203h-596v-447h596v-202h-596v-461h596v-203h-817zM268 1642v250h213v-250h-213zM586 1642v250h213v-250h-213z" />
<glyph unicode="&#xcc;" horiz-adv-x="526" d="M-133 1853l86 154l461 -252l-90 -164zM154 0v1516h221v-1516h-221z" />
<glyph unicode="&#xcd;" horiz-adv-x="526" d="M113 1745l456 262l90 -166l-460 -250zM154 0v1516h221v-1516h-221z" />
<glyph unicode="&#xce;" horiz-adv-x="526" d="M-125 1634l285 277h205l286 -277h-243l-142 142l-147 -142h-244zM154 0v1516h221v-1516h-221z" />
<glyph unicode="&#xcf;" horiz-adv-x="526" d="M-2 1642v250h213v-250h-213zM154 0v1516h221v-1516h-221zM315 1642v250h213v-250h-213z" />
<glyph unicode="&#xd0;" horiz-adv-x="1499" d="M4 659v203h129v654h496q412 0 614 -279q156 -217 156 -483q0 -154 -53.5 -303.5t-137.5 -231.5q-221 -219 -587 -219h-488v659h-129zM354 203h269q102 0 196 28.5t177 89t132.5 172t49.5 261.5q0 92 -31 185t-92.5 179t-173 140.5t-254.5 54.5h-273v-451h396v-203h-396 v-456z" />
<glyph unicode="&#xd1;" horiz-adv-x="1511" d="M154 0v1516h241l738 -1154h4v1154h221v-1516h-230l-749 1171h-4v-1171h-221zM381 1784q125 80 211 80q23 0 145.5 -28t143.5 -28q47 0 163 58l89 -129q-115 -94 -224 -95q-25 0 -146.5 27t-141.5 27q-54 0 -144 -45z" />
<glyph unicode="&#xd2;" horiz-adv-x="1732" d="M78 757.5q0 317.5 225 552t563 234.5q334 0 561.5 -231t227.5 -559q0 -315 -228.5 -549t-560.5 -234q-334 0 -561 234.5t-227 552zM299 758q0 -96 35 -195.5t101.5 -188.5t179 -144.5t252 -55.5t252 56.5t179 144.5t101.5 185.5t35 191.5q0 104 -37 205.5t-104.5 188.5 t-179.5 141t-247 54q-139 0 -251.5 -56t-179 -145t-101.5 -188.5t-35 -193.5zM553 1853l86 154l461 -252l-90 -164z" />
<glyph unicode="&#xd3;" horiz-adv-x="1732" d="M78 757.5q0 317.5 225 552t563 234.5q334 0 561.5 -231t227.5 -559q0 -315 -228.5 -549t-560.5 -234q-334 0 -561 234.5t-227 552zM299 758q0 -96 35 -195.5t101.5 -188.5t179 -144.5t252 -55.5t252 56.5t179 144.5t101.5 185.5t35 191.5q0 104 -37 205.5t-104.5 188.5 t-179.5 141t-247 54q-139 0 -251.5 -56t-179 -145t-101.5 -188.5t-35 -193.5zM635 1745l457 262l90 -166l-461 -250z" />
<glyph unicode="&#xd4;" horiz-adv-x="1732" d="M78 757.5q0 317.5 225 552t563 234.5q334 0 561.5 -231t227.5 -559q0 -315 -228.5 -549t-560.5 -234q-334 0 -561 234.5t-227 552zM299 758q0 -96 35 -195.5t101.5 -188.5t179 -144.5t252 -55.5t252 56.5t179 144.5t101.5 185.5t35 191.5q0 104 -37 205.5t-104.5 188.5 t-179.5 141t-247 54q-139 0 -251.5 -56t-179 -145t-101.5 -188.5t-35 -193.5zM479 1634l285 277h205l286 -277h-243l-142 142l-147 -142h-244z" />
<glyph unicode="&#xd5;" horiz-adv-x="1732" d="M78 757.5q0 317.5 225 552t563 234.5q334 0 561.5 -231t227.5 -559q0 -315 -228.5 -549t-560.5 -234q-334 0 -561 234.5t-227 552zM299 758q0 -96 35 -195.5t101.5 -188.5t179 -144.5t252 -55.5t252 56.5t179 144.5t101.5 185.5t35 191.5q0 104 -37 205.5t-104.5 188.5 t-179.5 141t-247 54q-139 0 -251.5 -56t-179 -145t-101.5 -188.5t-35 -193.5zM492 1784q125 80 210 80q23 0 146 -28t143 -28q47 0 164 58l88 -129q-115 -94 -223 -95q-25 0 -146.5 27t-142.5 27q-53 0 -143 -45z" />
<glyph unicode="&#xd6;" horiz-adv-x="1732" d="M78 757.5q0 317.5 225 552t563 234.5q334 0 561.5 -231t227.5 -559q0 -315 -228.5 -549t-560.5 -234q-334 0 -561 234.5t-227 552zM299 758q0 -96 35 -195.5t101.5 -188.5t179 -144.5t252 -55.5t252 56.5t179 144.5t101.5 185.5t35 191.5q0 104 -37 205.5t-104.5 188.5 t-179.5 141t-247 54q-139 0 -251.5 -56t-179 -145t-101.5 -188.5t-35 -193.5zM602 1642v250h213v-250h-213zM920 1642v250h213v-250h-213z" />
<glyph unicode="&#xd7;" horiz-adv-x="1228" d="M125 176l342 342l-342 342l147 148l342 -342l342 342l148 -148l-344 -342l344 -342l-148 -147l-342 344l-342 -344z" />
<glyph unicode="&#xd8;" horiz-adv-x="1732" d="M78 758q0 319 225 552.5t561 233.5q215 0 385 -96l142 194l170 -118l-146 -199q29 -25 59.5 -63.5t76.5 -110.5t75 -176.5t29 -216.5q0 -319 -228.5 -553t-560.5 -234q-208 0 -374 92l-144 -196l-164 115l146 200q-252 242 -252 576zM299 758q0 -226 156 -404l673 926 q-115 61 -260 61q-141 0 -255.5 -57t-180 -147t-99.5 -187.5t-34 -191.5zM616 227q106 -53 250 -53q137 0 250 55.5t179.5 142.5t102.5 187t36 199q-1 217 -146 393z" />
<glyph unicode="&#xd9;" horiz-adv-x="1316" d="M150 489v1027h221v-1020q0 -80 22.5 -141.5t54 -94.5t73.5 -53.5t74 -26.5t62.5 -6t62.5 6t74 26.5t73.5 53.5t54 94.5t22.5 141.5v1020h221v-1027q0 -242 -153 -389q-156 -129 -354.5 -129t-354.5 129q-154 147 -153 389zM293 1853l86 154l461 -252l-90 -164z" />
<glyph unicode="&#xda;" horiz-adv-x="1316" d="M150 489v1027h221v-1020q0 -80 22.5 -141.5t54 -94.5t73.5 -53.5t74 -26.5t62.5 -6t62.5 6t74 26.5t73.5 53.5t54 94.5t22.5 141.5v1020h221v-1027q0 -242 -153 -389q-156 -129 -354.5 -129t-354.5 129q-154 147 -153 389zM477 1745l457 262l90 -166l-461 -250z" />
<glyph unicode="&#xdb;" horiz-adv-x="1316" d="M150 489v1027h221v-1020q0 -80 22.5 -141.5t54 -94.5t73.5 -53.5t74 -26.5t62.5 -6t62.5 6t74 26.5t73.5 53.5t54 94.5t22.5 141.5v1020h221v-1027q0 -242 -153 -389q-156 -129 -354.5 -129t-354.5 129q-154 147 -153 389zM270 1634l285 277h205l287 -277h-244l-141 142 l-148 -142h-244z" />
<glyph unicode="&#xdc;" horiz-adv-x="1316" d="M150 489v1027h221v-1020q0 -80 22.5 -141.5t54 -94.5t73.5 -53.5t74 -26.5t62.5 -6t62.5 6t74 26.5t73.5 53.5t54 94.5t22.5 141.5v1020h221v-1027q0 -242 -153 -389q-156 -129 -354.5 -129t-354.5 129q-154 147 -153 389zM393 1642v250h213v-250h-213zM711 1642v250h213 v-250h-213z" />
<glyph unicode="&#xdd;" horiz-adv-x="1214" d="M27 1516h247l334 -711l332 711h246l-467 -969v-547h-221v547zM426 1745l457 262l90 -166l-461 -250z" />
<glyph unicode="&#xde;" horiz-adv-x="1144" d="M133 0v1516h221v-299h217q264 0 399.5 -124t135.5 -335t-135 -335t-400 -124h-217v-299h-221zM354 502h217q170 0 242 75.5t72 180t-72 180.5t-242 76h-217v-512z" />
<glyph unicode="&#xdf;" horiz-adv-x="1310" d="M135 0v1057q0 133 45 233.5t116 152.5t142.5 76.5t141.5 24.5q186 0 319 -133t133 -315q0 -152 -119 -246q160 -39 240 -155.5t80 -245.5q0 -203 -134 -340.5t-337 -137.5q-154 0 -258 76q-55 39 -88 77t-43.5 61.5t-22.5 68.5h-4v-254h-211zM348 397h172 q20 -121 101 -180q66 -51 149 -51q113 0 181.5 80t68.5 182q0 18 -2 36.5t-18.5 61.5t-46 74t-94 56.5t-152.5 25.5h-148v188q74 2 127 26t77.5 51.5t38 66.5t15.5 57.5t2 36.5q0 92 -63.5 167t-171.5 75q-66 0 -114 -27t-70.5 -60.5t-36 -83t-14.5 -72.5t-1 -50v-660z" />
<glyph unicode="&#xe0;" horiz-adv-x="1419" d="M78 563q0 106 38 211t109.5 194t190.5 143t264 54q121 0 223.5 -49t161.5 -141h4v160h213v-1135h-213v176h-4q-59 -100 -161.5 -152.5t-223.5 -52.5q-274 0 -438 177.5t-164 414.5zM291 565q0 -158 111.5 -278.5t275.5 -120.5q166 0 280.5 117.5t114.5 281.5 q0 178 -112.5 292t-280.5 114q-182 0 -285.5 -127t-103.5 -279zM395 1513l86 154l461 -252l-90 -164z" />
<glyph unicode="&#xe1;" horiz-adv-x="1419" d="M78 563q0 106 38 211t109.5 194t190.5 143t264 54q121 0 223.5 -49t161.5 -141h4v160h213v-1135h-213v176h-4q-59 -100 -161.5 -152.5t-223.5 -52.5q-274 0 -438 177.5t-164 414.5zM291 565q0 -158 111.5 -278.5t275.5 -120.5q166 0 280.5 117.5t114.5 281.5 q0 178 -112.5 292t-280.5 114q-182 0 -285.5 -127t-103.5 -279zM477 1405l457 262l90 -166l-461 -250z" />
<glyph unicode="&#xe2;" horiz-adv-x="1419" d="M78 563q0 106 38 211t109.5 194t190.5 143t264 54q121 0 223.5 -49t161.5 -141h4v160h213v-1135h-213v176h-4q-59 -100 -161.5 -152.5t-223.5 -52.5q-274 0 -438 177.5t-164 414.5zM291 565q0 -158 111.5 -278.5t275.5 -120.5q166 0 280.5 117.5t114.5 281.5 q0 178 -112.5 292t-280.5 114q-182 0 -285.5 -127t-103.5 -279zM322 1294l284 277h205l287 -277h-244l-141 142l-148 -142h-243z" />
<glyph unicode="&#xe3;" horiz-adv-x="1419" d="M78 563q0 106 38 211t109.5 194t190.5 143t264 54q121 0 223.5 -49t161.5 -141h4v160h213v-1135h-213v176h-4q-59 -100 -161.5 -152.5t-223.5 -52.5q-274 0 -438 177.5t-164 414.5zM291 565q0 -158 111.5 -278.5t275.5 -120.5q166 0 280.5 117.5t114.5 281.5 q0 178 -112.5 292t-280.5 114q-182 0 -285.5 -127t-103.5 -279zM334 1444q125 80 211 80q23 0 145.5 -28t143.5 -28q47 0 163 58l88 -129q-115 -94 -223 -94q-25 0 -146.5 26.5t-142.5 26.5q-53 0 -143 -45z" />
<glyph unicode="&#xe4;" horiz-adv-x="1419" d="M78 563q0 106 38 211t109.5 194t190.5 143t264 54q121 0 223.5 -49t161.5 -141h4v160h213v-1135h-213v176h-4q-59 -100 -161.5 -152.5t-223.5 -52.5q-274 0 -438 177.5t-164 414.5zM291 565q0 -158 111.5 -278.5t275.5 -120.5q166 0 280.5 117.5t114.5 281.5 q0 178 -112.5 292t-280.5 114q-182 0 -285.5 -127t-103.5 -279zM444 1303v249h213v-249h-213zM762 1303v249h213v-249h-213z" />
<glyph unicode="&#xe5;" horiz-adv-x="1419" d="M78 563q0 106 38 211t109.5 194t190.5 143t264 54q121 0 223.5 -49t161.5 -141h4v160h213v-1135h-213v176h-4q-59 -100 -161.5 -152.5t-223.5 -52.5q-274 0 -438 177.5t-164 414.5zM291 565q0 -158 111.5 -278.5t275.5 -120.5q166 0 280.5 117.5t114.5 281.5 q0 178 -112.5 292t-280.5 114q-182 0 -285.5 -127t-103.5 -279zM483 1475q0 94 66.5 160.5t159.5 66.5q94 0 160.5 -66.5t66.5 -160.5q0 -92 -66.5 -159t-160.5 -67q-92 0 -159 66.5t-67 159.5zM604 1475q0 -43 31 -74t74 -31q45 0 75.5 31t30.5 74q0 45 -30.5 75.5 t-75.5 30.5q-43 0 -74 -30.5t-31 -75.5z" />
<glyph unicode="&#xe6;" horiz-adv-x="2316" d="M78 578q0 248 172 417.5t428 169.5q244 0 401 -164h4v134h195v-134h4q51 66 133 106t140.5 49t111.5 9q240 0 405.5 -178t165.5 -414q0 -10 -6 -96h-946q23 -127 125 -219t246 -92q92 0 184 47t144 147h219q-39 -111 -110 -191.5t-150.5 -120.5t-150.5 -58.5t-132 -18.5 q-229 2 -379 162h-4v-133h-195v133q-49 -45 -84.5 -70.5t-123 -58.5t-189.5 -33q-272 0 -440 181.5t-168 425.5zM291 575q0 -166 104.5 -287.5t280.5 -121.5q174 0 285.5 119.5t111.5 285.5q0 162 -108.5 281t-288.5 119q-176 0 -280.5 -118t-104.5 -278zM1286 625h739 q-8 121 -71.5 202.5t-139 112.5t-155.5 31q-57 0 -115.5 -18.5t-115 -57.5t-95.5 -108.5t-47 -161.5z" />
<glyph unicode="&#xe7;" horiz-adv-x="1284" d="M78 569q0 242 161.5 419t422.5 177q219 0 368.5 -129t188.5 -278h-236q-104 213 -319 213q-129 0 -217.5 -66.5t-122 -153.5t-33.5 -182q0 -160 98 -281.5t270 -121.5q115 0 197 57.5t125 151.5h238q-61 -184 -210 -291t-337 -111l-35 -112q6 0 20.5 1t20.5 1 q68 0 118 -48t50 -124q0 -78 -54.5 -136.5t-146.5 -58.5q-68 0 -125 43t-65 125h108q23 -63 84 -63q37 0 61.5 22.5t24.5 61.5q0 37 -25.5 58t-60.5 21q-37 0 -69 -28l-70 65l59 179q-225 33 -357 204.5t-132 384.5z" />
<glyph unicode="&#xe8;" horiz-adv-x="1314" d="M80 569q0 252 170 424t412 172q233 0 404 -168t173 -413q0 -66 -6 -109h-940q37 -154 144.5 -231.5t228.5 -77.5q111 0 196.5 55t126.5 135h213q-51 -137 -151.5 -228t-197.5 -124t-196 -33q-240 0 -408.5 177.5t-168.5 420.5zM293 639h733q-8 129 -113.5 230.5 t-253 101.5t-253 -101.5t-113.5 -230.5zM344 1513l86 154l461 -252l-90 -164z" />
<glyph unicode="&#xe9;" horiz-adv-x="1314" d="M80 569q0 252 170 424t412 172q233 0 404 -168t173 -413q0 -66 -6 -109h-940q37 -154 144.5 -231.5t228.5 -77.5q111 0 196.5 55t126.5 135h213q-51 -137 -151.5 -228t-197.5 -124t-196 -33q-240 0 -408.5 177.5t-168.5 420.5zM293 639h733q-8 129 -113.5 230.5 t-253 101.5t-253 -101.5t-113.5 -230.5zM426 1405l457 262l90 -166l-461 -250z" />
<glyph unicode="&#xea;" horiz-adv-x="1314" d="M80 569q0 252 170 424t412 172q233 0 404 -168t173 -413q0 -66 -6 -109h-940q37 -154 144.5 -231.5t228.5 -77.5q111 0 196.5 55t126.5 135h213q-51 -137 -151.5 -228t-197.5 -124t-196 -33q-240 0 -408.5 177.5t-168.5 420.5zM270 1294l285 277h205l287 -277h-244 l-141 142l-148 -142h-244zM293 639h733q-8 129 -113.5 230.5t-253 101.5t-253 -101.5t-113.5 -230.5z" />
<glyph unicode="&#xeb;" horiz-adv-x="1314" d="M80 569q0 252 170 424t412 172q233 0 404 -168t173 -413q0 -66 -6 -109h-940q37 -154 144.5 -231.5t228.5 -77.5q111 0 196.5 55t126.5 135h213q-51 -137 -151.5 -228t-197.5 -124t-196 -33q-240 0 -408.5 177.5t-168.5 420.5zM293 639h733q-8 129 -113.5 230.5 t-253 101.5t-253 -101.5t-113.5 -230.5zM393 1303v249h213v-249h-213zM711 1303v249h213v-249h-213z" />
<glyph unicode="&#xec;" horiz-adv-x="487" d="M-152 1513l86 154l461 -252l-90 -164zM137 0v1135h213v-1135h-213z" />
<glyph unicode="&#xed;" horiz-adv-x="487" d="M94 1405l457 262l90 -166l-461 -250zM137 0v1135h213v-1135h-213z" />
<glyph unicode="&#xee;" horiz-adv-x="487" d="M-143 1294l284 277h205l287 -277h-244l-141 142l-148 -142h-243zM137 0v1135h213v-1135h-213z" />
<glyph unicode="&#xef;" horiz-adv-x="487" d="M-20 1303v249h213v-249h-213zM137 0v1135h213v-1135h-213zM297 1303v249h213v-249h-213z" />
<glyph unicode="&#xf0;" horiz-adv-x="1382" d="M78 573q0 244 179 418t421 174q111 0 207 -57l4 4q-80 94 -227 178l-343 -114l-135 104l299 100q-53 23 -223 84l246 80q100 -25 219 -84l254 84l131 -106l-221 -74q203 -141 308.5 -345t105.5 -415q0 -274 -176.5 -453.5t-436.5 -179.5q-143 0 -263 56.5t-194.5 145.5 t-114.5 193.5t-40 206.5zM291 569q0 -154 112.5 -278.5t288.5 -124.5q178 0 288 124t110 285q0 154 -107 275t-295 121q-174 0 -285.5 -125t-111.5 -277z" />
<glyph unicode="&#xf1;" horiz-adv-x="1277" d="M135 0v1135h199v-121h4q115 152 332 151q270 0 401 -202q70 -113 72 -291v-672h-213v616q0 354 -283 355q-137 0 -218 -92.5t-81 -260.5v-618h-213zM264 1444q125 80 211 80q23 0 145.5 -28t143.5 -28q47 0 164 58l88 -129q-115 -94 -223 -94q-25 0 -147 26.5t-142 26.5 q-54 0 -144 -45z" />
<glyph unicode="&#xf2;" horiz-adv-x="1382" d="M78 575q0 238 177 414t435 176q256 0 434.5 -175t178.5 -419q0 -143 -71 -278t-215.5 -228.5t-326.5 -93.5q-270 0 -441 186.5t-171 417.5zM291 569.5q0 -159.5 113.5 -281.5t285.5 -122q170 0 285 120.5t115 284.5q0 158 -113 279t-287 121t-286.5 -121t-112.5 -280.5z M377 1513l86 154l461 -252l-90 -164z" />
<glyph unicode="&#xf3;" horiz-adv-x="1382" d="M78 575q0 238 177 414t435 176q256 0 434.5 -175t178.5 -419q0 -143 -71 -278t-215.5 -228.5t-326.5 -93.5q-270 0 -441 186.5t-171 417.5zM291 569.5q0 -159.5 113.5 -281.5t285.5 -122q170 0 285 120.5t115 284.5q0 158 -113 279t-287 121t-286.5 -121t-112.5 -280.5z M459 1405l456 262l91 -166l-461 -250z" />
<glyph unicode="&#xf4;" horiz-adv-x="1382" d="M78 575q0 238 177 414t435 176q256 0 434.5 -175t178.5 -419q0 -143 -71 -278t-215.5 -228.5t-326.5 -93.5q-270 0 -441 186.5t-171 417.5zM291 569.5q0 -159.5 113.5 -281.5t285.5 -122q170 0 285 120.5t115 284.5q0 158 -113 279t-287 121t-286.5 -121t-112.5 -280.5z M303 1294l285 277h205l286 -277h-243l-142 142l-147 -142h-244z" />
<glyph unicode="&#xf5;" horiz-adv-x="1382" d="M78 575q0 238 177 414t435 176q256 0 434.5 -175t178.5 -419q0 -143 -71 -278t-215.5 -228.5t-326.5 -93.5q-270 0 -441 186.5t-171 417.5zM291 569.5q0 -159.5 113.5 -281.5t285.5 -122q170 0 285 120.5t115 284.5q0 158 -113 279t-287 121t-286.5 -121t-112.5 -280.5z M315 1444q125 80 211 80q23 0 146 -28t143 -28q47 0 164 58l88 -129q-115 -94 -223 -94q-25 0 -147 26.5t-142 26.5q-53 0 -143 -45z" />
<glyph unicode="&#xf6;" horiz-adv-x="1382" d="M78 575q0 238 177 414t435 176q256 0 434.5 -175t178.5 -419q0 -143 -71 -278t-215.5 -228.5t-326.5 -93.5q-270 0 -441 186.5t-171 417.5zM291 569.5q0 -159.5 113.5 -281.5t285.5 -122q170 0 285 120.5t115 284.5q0 158 -113 279t-287 121t-286.5 -121t-112.5 -280.5z M426 1303v249h213v-249h-213zM743 1303v249h213v-249h-213z" />
<glyph unicode="&#xf7;" horiz-adv-x="1228" d="M98 412v213h1032v-213h-1032zM508 0v221h213v-221h-213zM508 815v221h213v-221h-213z" />
<glyph unicode="&#xf8;" horiz-adv-x="1382" d="M78 575q0 238 177 414t435 176q135 0 244 -49l104 160l164 -109l-102 -155q100 -86 151.5 -203t51.5 -236q0 -109 -43 -215t-120 -193t-195 -140.5t-255 -53.5q-131 0 -244 49l-106 -161l-162 108l105 158q-205 188 -205 450zM291 569q0 -151 104 -272l428 651 q-68 23 -133 23q-172 0 -285.5 -121t-113.5 -281zM557 188q68 -23 133 -22q172 0 286 122t114 281q-1 156 -103 271z" />
<glyph unicode="&#xf9;" horiz-adv-x="1277" d="M135 520v615h213v-615q0 -197 76 -275.5t207 -78.5q137 0 217 90t80 270v609h213v-1135h-195v123h-4q-43 -72 -133 -112t-201 -40q-195 0 -323 113q-150 129 -150 436zM274 1513l86 154l461 -252l-90 -164z" />
<glyph unicode="&#xfa;" horiz-adv-x="1277" d="M135 520v615h213v-615q0 -197 76 -275.5t207 -78.5q137 0 217 90t80 270v609h213v-1135h-195v123h-4q-43 -72 -133 -112t-201 -40q-195 0 -323 113q-150 129 -150 436zM459 1405l456 262l91 -166l-461 -250z" />
<glyph unicode="&#xfb;" horiz-adv-x="1277" d="M135 520v615h213v-615q0 -197 76 -275.5t207 -78.5q137 0 217 90t80 270v609h213v-1135h-195v123h-4q-43 -72 -133 -112t-201 -40q-195 0 -323 113q-150 129 -150 436zM252 1294l285 277h204l287 -277h-244l-141 142l-147 -142h-244z" />
<glyph unicode="&#xfc;" horiz-adv-x="1277" d="M135 520v615h213v-615q0 -197 76 -275.5t207 -78.5q137 0 217 90t80 270v609h213v-1135h-195v123h-4q-43 -72 -133 -112t-201 -40q-195 0 -323 113q-150 129 -150 436zM375 1303v249h213v-249h-213zM692 1303v249h213v-249h-213z" />
<glyph unicode="&#xfd;" horiz-adv-x="1175" d="M20 1135h230l334 -881l342 881h229l-627 -1514h-221l166 402zM408 1405l456 262l90 -166l-460 -250z" />
<glyph unicode="&#xfe;" horiz-adv-x="1404" d="M137 -379v1895h213v-539h4q59 94 164 141t221 47q272 0 430 -183t158 -429q0 -229 -158.5 -405.5t-414.5 -176.5q-158 0 -257.5 58.5t-142.5 134.5h-4v-543h-213zM346 569q0 -172 111.5 -287.5t273.5 -115.5q156 0 269.5 112.5t113.5 286.5q0 160 -110.5 283t-278.5 123 q-164 0 -271.5 -120t-107.5 -282z" />
<glyph unicode="&#x152;" horiz-adv-x="2240" d="M78 750q0 139 51 276t145.5 255t251 190.5t346.5 72.5q156 0 308.5 -61.5t236.5 -188.5h4v222h725v-203h-504v-447h504v-202h-504v-461h504v-203h-725v217h-4q-59 -86 -146 -141.5t-178.5 -74.5t-136.5 -24.5t-88 -5.5q-184 0 -337.5 67.5t-251 179.5t-149.5 249t-52 283 zM299 748q0 -231 154.5 -402.5t408.5 -171.5t408.5 171t154.5 403q0 229 -152.5 411t-408.5 182q-176 0 -308 -92t-194.5 -224t-62.5 -277z" />
<glyph unicode="&#x153;" horiz-adv-x="2342" d="M78 571q0 236 173 415t431 179q113 0 208 -30.5t157.5 -79.5t94.5 -84t56 -72q158 266 479 266q246 0 418 -168t172 -428q0 -43 -4 -92l-960 2q23 -121 128 -217t248 -96q121 0 208 55t132 139h215q-43 -109 -112.5 -187.5t-132 -116.5t-137 -58.5t-108.5 -23.5t-65 -3 q-127 0 -259 63.5t-220 213.5q-66 -109 -194.5 -193t-307.5 -84q-139 0 -260 54.5t-197.5 141.5t-119.5 192.5t-43 211.5zM291 571q0 -162 114.5 -283.5t278.5 -121.5t283.5 113.5t119.5 283.5q0 178 -115.5 293t-287.5 115q-162 0 -277.5 -118t-115.5 -282zM1303 627h751 q-18 180 -125.5 261t-242.5 81h-7h-6q-133 0 -239 -82t-131 -260z" />
<glyph unicode="&#x178;" horiz-adv-x="1214" d="M27 1516h247l334 -711l332 711h246l-467 -969v-547h-221v547zM342 1642v250h213v-250h-213zM659 1642v250h213v-250h-213z" />
<glyph unicode="&#x2c6;" d="M180 1294l285 277h205l286 -277h-243l-142 142l-147 -142h-244z" />
<glyph unicode="&#x2dc;" d="M193 1444q125 80 210 80q23 0 146 -28t143 -28q47 0 164 58l88 -129q-115 -94 -223 -94q-25 0 -146.5 26.5t-142.5 26.5q-53 0 -143 -45z" />
<glyph unicode="&#x2000;" horiz-adv-x="1005" />
<glyph unicode="&#x2001;" horiz-adv-x="2011" />
<glyph unicode="&#x2002;" horiz-adv-x="1005" />
<glyph unicode="&#x2003;" horiz-adv-x="2011" />
<glyph unicode="&#x2004;" horiz-adv-x="670" />
<glyph unicode="&#x2005;" horiz-adv-x="502" />
<glyph unicode="&#x2006;" horiz-adv-x="335" />
<glyph unicode="&#x2007;" horiz-adv-x="335" />
<glyph unicode="&#x2008;" horiz-adv-x="251" />
<glyph unicode="&#x2009;" horiz-adv-x="402" />
<glyph unicode="&#x200a;" horiz-adv-x="111" />
<glyph unicode="&#x2010;" horiz-adv-x="573" d="M0 485v213h573v-213h-573z" />
<glyph unicode="&#x2011;" horiz-adv-x="573" d="M0 485v213h573v-213h-573z" />
<glyph unicode="&#x2012;" horiz-adv-x="573" d="M0 485v213h573v-213h-573z" />
<glyph unicode="&#x2013;" horiz-adv-x="1024" d="M72 485v213h880v-213h-880z" />
<glyph unicode="&#x2014;" horiz-adv-x="2048" d="M72 485v213h1904v-213h-1904z" />
<glyph unicode="&#x2018;" horiz-adv-x="567" d="M176 1004v227q0 240 213 285v-130q-76 -25 -76 -114v-19h76v-249h-213z" />
<glyph unicode="&#x201a;" horiz-adv-x="567" d="M178 0v250h213v-227q0 -240 -213 -285v129q76 25 76 115v18h-76z" />
<glyph unicode="&#x201c;" horiz-adv-x="870" d="M170 1004v227q0 240 213 285v-130q-76 -25 -76 -114v-19h76v-249h-213zM489 1004v227q0 240 213 285v-130q-76 -25 -75 -114v-19h75v-249h-213z" />
<glyph unicode="&#x201d;" horiz-adv-x="870" d="M168 1004v129q76 25 76 114v19h-76v250h213v-228q0 -240 -213 -284zM487 1004v129q76 25 76 114v19h-76v250h213v-228q0 -240 -213 -284z" />
<glyph unicode="&#x2026;" horiz-adv-x="2048" d="M236 0v250h213v-250h-213zM918 0v250h212v-250h-212zM1599 0v250h213v-250h-213z" />
<glyph unicode="&#x202f;" horiz-adv-x="402" />
<glyph unicode="&#x2039;" horiz-adv-x="419" d="M70 483v211l280 279v-232l-153 -151l153 -152v-229z" />
<glyph unicode="&#x203a;" horiz-adv-x="419" d="M70 209v229l153 152l-153 151v232l280 -279v-211z" />
<glyph unicode="&#x205f;" horiz-adv-x="502" />
<glyph unicode="&#x20ac;" d="M45 518l55 174h86q-2 18 -2 76q0 49 2 68h-141l55 174h101q37 250 166 393t358 143q213 0 324 -88v-225q-104 109 -297 108q-150 0 -234 -88t-106 -243h561l-55 -174h-529q0 -8 -1 -32t-1 -36q0 -14 1 -41t1 -35h479l-55 -174h-401q23 -166 109.5 -253t232.5 -87 q184 0 295 107v-228q-98 -84 -324 -84q-444 0 -522 545h-158z" />
<glyph unicode="&#x2122;" horiz-adv-x="2027" d="M0 1272v162h692v-162h-246v-682h-200v682h-246zM860 590v844h293l203 -533l200 533h293v-844h-200v598h-4l-213 -598h-154l-213 598h-4v-598h-201z" />
<glyph unicode="&#x25fc;" d="M0 0v1137h1137v-1137h-1137z" />
</font>
</defs>
</svg>
