<svg id="Layer_1" xmlns="http://www.w3.org/2000/svg" viewBox="105 -165 238 352"><style>.st0{fill:#6D8AAA;} .st1{fill:#EAECF1;} .st2{fill:none;stroke:#6D8AAA;stroke-miterlimit:10;} .st3{fill:none;stroke:#6D8AAA;stroke-width:0.5546;stroke-miterlimit:10;} .st4{fill:#EAECF1;stroke:#6D8AAA;stroke-width:2;stroke-miterlimit:10;}</style><path class="st0" d="M132.6-23.1H315V-9H132.6z"/><path class="st1" d="M132.6-51H315v14.1H132.6z"/><path class="st2" d="M132.5-163.5h183v350h-183z"/><path class="st3" d="M132.4-149.1h183.4M132.4-135.1h183.4M132.4-121.1h183.4M132.4-107.1h183.4M132.4-93.1h183.4M132.4-79.1h183.4M132.4-65.1h183.4M132.4-51.1h183.4M132.4-37.1h183.4M132.4-23.1h183.4M132.4-9.1h183.4M132.4 4.9h183.4M132.4 18.9h183.4M132.4 32.9h183.4M132.4 46.9h183.4M132.4 60.9h183.4M132.4 74.9h183.4M132.4 88.9h183.4M132.4 102.9h183.4M132.4 116.9h183.4M132.4 130.9h183.4M132.4 144.9h183.4M105.4 158.9h237.4M132.4 172.9h183.4"/><path class="st4" d="M223-164h6v337h-6zM212-164h6v337h-6zM201-150h6v323h-6zM190-38h6v211h-6z"/></svg>