<svg id="Layer_1" xmlns="http://www.w3.org/2000/svg" viewBox="0 0 238 352"><style>.st0{fill:#6D8AAA;} .st1{fill:#EAECF1;} .st2{fill:none;stroke:#6D8AAA;stroke-miterlimit:10;} .st3{fill:none;stroke:#6D8AAA;stroke-width:0.5546;stroke-miterlimit:10;} .st4{fill:#EAECF1;stroke:#6D8AAA;stroke-width:2;stroke-miterlimit:10;}</style><path class="st0" d="M27.6 113.9H210V127H27.6z"/><path class="st1" d="M27.6 142H210v13.1H27.6z"/><path class="st2" d="M27.5 1.5h183v350h-183z"/><path class="st3" d="M27.4 15.9h183.4M27.4 29.9h183.4M27.4 43.9h183.4M27.4 57.9h183.4M27.4 71.9h183.4M27.4 85.9h183.4M27.4 99.9h183.4M27.4 113.9h183.4M27.4 127.9h183.4M27.4 141.9h183.4M27.4 155.9h183.4M27.4 169.9h183.4M27.4 183.9h183.4M27.4 197.9h183.4M27.4 211.9h183.4M27.4 225.9h183.4M27.4 239.9h183.4M27.4 253.9h183.4M27.4 267.9h183.4M27.4 281.9h183.4M27.4 295.9h183.4M27.4 309.9h183.4M.4 323.9h237.4M27.4 337.9h183.4"/><path class="st4" d="M118 1h6v337h-6zM107 1h6v337h-6zM96 15h6v323h-6zM85 127h6v211h-6z"/></svg>