<svg id="Layer_1" xmlns="http://www.w3.org/2000/svg" xmlns:xlink="http://www.w3.org/1999/xlink" viewBox="0 0 23 23"><style>.st0{clip-path:url(#XMLID_30_);} .st1{fill:none;stroke:#777777;stroke-width:0.2472;stroke-linecap:round;stroke-linejoin:round;}</style><defs><circle id="XMLID_1_" cx="11.5" cy="11.5" r="11.2"/></defs><clipPath id="XMLID_30_"><use xlink:href="#XMLID_1_" overflow="visible"/></clipPath><g class="st0"><path id="XMLID_28_" class="st1" d="M33.6 39.7v-62.1"/><path id="XMLID_27_" class="st1" d="M29.3 39.7v-62.1"/><path id="XMLID_26_" class="st1" d="M24.9 39.7v-62.1"/><path id="XMLID_25_" class="st1" d="M20.5 42.7v-68"/><path id="XMLID_24_" class="st1" d="M16.2 42.7v-68"/><path id="XMLID_23_" class="st1" d="M11.9 42.7v-68"/><path id="XMLID_22_" class="st1" d="M7.5 42.7v-68"/><path id="XMLID_21_" class="st1" d="M3.2 42.7v-68"/><path id="XMLID_20_" class="st1" d="M-1.2 42.7v-68"/><path id="XMLID_19_" class="st1" d="M-5.6 42.7v-68"/><path id="XMLID_18_" class="st1" d="M-10 42.7v-68"/><path id="XMLID_17_" class="st1" d="M-14.3 42.7v-68"/><path id="XMLID_16_" class="st1" d="M-16.3 42.5h39.6"/><path id="XMLID_15_" class="st1" d="M-16.3 38.1h55.6"/><path id="XMLID_14_" class="st1" d="M-16.3 33.8h55.6"/><path id="XMLID_13_" class="st1" d="M-16.3 29.4h55.6"/><path id="XMLID_12_" class="st1" d="M-16.3 25.1h55.6"/><path id="XMLID_11_" class="st1" d="M-16.3 20.7h55.6"/><path id="XMLID_10_" class="st1" d="M-16.3 16.4h55.6"/><path id="XMLID_9_" class="st1" d="M-16.3 12h55.6"/><path id="XMLID_8_" class="st1" d="M-16.3 7.6h55.6"/><path id="XMLID_7_" class="st1" d="M-16.3 3.3h55.6"/><path id="XMLID_6_" class="st1" d="M-16.3-1.1h55.6"/><path id="XMLID_5_" class="st1" d="M-16.3-5.4h55.6"/><path id="XMLID_4_" class="st1" d="M-16.3-9.8h55.6"/><path id="XMLID_3_" class="st1" d="M-16.3-14.1h55.6"/><path id="XMLID_2_" class="st1" d="M-16.3-18.5h55.6"/></g><use xlink:href="#XMLID_1_" overflow="visible" fill="none" stroke="#777" stroke-width=".247" stroke-linecap="round" stroke-linejoin="round"/></svg>