<svg id="Layer_1" xmlns="http://www.w3.org/2000/svg" viewBox="0 0 190 96"><style>.st0{fill:#FFFFFF;}</style><path class="st0" d="M89.4 70.1c-.1 0-.1 0 0 0-.1 0-.1 0 0 0-.1 0 0 0 0 0zM77.4 72.6c-.9-1-1.7-2-2.5-2.3 1.2-.3 3-1.7 3-3.6 0-2.1-1.3-4-5.4-4h-5.1c.2.1.4.2.5.3.2.3.3.7.3 1.5v10.4c0 .8-.1 1.2-.3 1.5-.1.1-.3.2-.5.3H71c-.2-.1-.4-.2-.5-.3-.2-.3-.3-.7-.3-1.5v-4h.9c.6 0 1.3 0 1.8.1.7.1 1.2 1 2.1 2l1.5 1.5c2 2 3.9 3 7.1 2.5-2.5.1-6.2-4.4-6.2-4.4zm-5.7-2.7h-1.5v-6.2h1.9c2.4 0 3.6.6 3.6 3.1.1 2.6-2.1 3.1-4 3.1zM44.9 62.7c.2.1.4.2.5.3.3.3.3.6.3 1.5v9.1l-9.2-10.9h-2.9c.2.1.4.2.5.3.2.3.3.9.3 1.7v10.2c0 .8-.1 1.2-.3 1.5-.1.1-.3.2-.5.3h2.8c-.2-.1-.4-.2-.5-.3-.2-.3-.3-.7-.3-1.5V64.6l10.2 12.1h1V64.5c0-.8.1-1.2.3-1.5.1-.1.3-.2.5-.3h-2.7zM179.9 62.7c.2.1.4.2.5.3.2.3.3.7.3 1.5v10.4c0 .8-.1 1.2-.3 1.5-.1.1-.3.2-.5.3h3.6c-.2-.1-.4-.2-.5-.3-.2-.3-.3-.7-.3-1.5v-5h3.7c.8 0 1.2.1 1.5.3.1.1.2.3.3.5V68c-.1.2-.2.4-.3.5-.3.2-.7.3-1.5.3h-3.7v-5.2h5.5c.8 0 1.2.1 1.5.3.1.1.2.3.3.5v-1.9h-10.1v.2zM19.2 76.7h-.1c-.1 0-.1-.1-.2-.1-.2-.1-.3-.3-.3-.6 0-.2.9-2.6 1.1-3.2h6.7c.4 1.1.8 2.2 1 2.7.1.2.1.4.1.5 0 .3-.1.5-.3.6 0 0-.1.1-.2.1h-.1 3.6c-.5-.2-.8-.6-1.2-1.6l-4.7-12.4h-2.4c-.1.3-4.5 11.9-4.5 11.9-.5 1.3-.8 1.8-1.4 2h2.9v.1zm3.9-12.9c.9 2.3 2.1 5.4 3 7.9h-6c.9-2.3 2.6-6.7 3-7.9zM131.4 76.4c-.2-.3-.3-.7-.3-1.5v-5h8.4v5c0 .8-.1 1.2-.3 1.5-.1.1-.3.2-.5.3h3.5c-.2-.1-.4-.2-.5-.3-.2-.3-.3-.7-.3-1.5V64.5c0-.8.1-1.2.3-1.5.1-.1.3-.2.5-.3h-3.5c.2.1.4.2.5.3.2.3.3.7.3 1.5v4.4H131v-4.4c0-.8.1-1.2.3-1.5.1-.1.3-.2.5-.3h-3.5c.2.1.4.2.5.3.2.3.3.7.3 1.5v10.4c0 .8-.1 1.2-.3 1.5-.1.1-.3.2-.5.3h3.5c-.2-.1-.3-.2-.4-.3zM122.6 62.7s.1 0 .1.1c.1 0 .1 0 .2.1.2.1.4.3.3.6 0 .1-2.5 6.9-3.8 10.4-1.5-4.3-3.4-10.2-3.4-10.4 0-.3.1-.5.4-.6h-3.2c.4.1.6.5.9 1.1-.5 1.4-2.5 7-3.6 10-1.5-4.4-3.5-10.2-3.5-10.4 0-.3.1-.5.4-.6h-3.2c.4.2.7.5 1 1.3l4.4 12.7h1c.1-.4.3-.8.5-1.3 1.2-3.1 3-7.8 3.7-9.7l3.8 10.9h1c.1-.4 4.5-11.9 4.5-11.9.5-1.3.8-1.8 1.4-2h-2.9v-.3zM90.2 76.4c-.2-.3-.3-.7-.3-1.5v-3.7s4.6-6.9 4.7-7c.7-1 1-1.5 1.5-1.5h-2.9.1c.3.1.5.3.4.5 0 .2-.1.4-.1.4s-3.7 5.5-4.3 6.4c-1.9-3-4-6.2-4-6.4-.2-.3-.2-.4-.2-.6 0-.2.2-.4.3-.4h-3.6c.5.1.9.3 1.3 1l4.8 7.5v3.7c0 .8-.1 1.2-.3 1.5-.1.1-.3.2-.5.3h3.6c-.3 0-.4-.1-.5-.2zM13.7 73.2c-.2.2-.4.6-.8 1l-.1.1-.1.1c-.2.2-.5.4-.7.6 0 0-.1 0-.1.1 0 0-.1 0-.1.1-1 .6-2 .9-3.2 1-1.7 0-3.3-.6-4.5-1.8-1.2-1.2-1.8-3-1.9-4.5-.1-2.4 1.1-4.6 3.2-5.8 0 0 .1 0 .1-.1.8-.4 1.8-.7 2.7-.7h.2c2 0 3.9.9 5.1 2.3l-.3-2.6c-.4.1-.9 0-1.6-.3-1-.3-2-.5-3.1-.5h-.1-.1c-.5 0-.9 0-1.4.1h-.1c-.2 0-.4.1-.6.1-1.4.3-2.7 1-3.7 1.9-1 .9-1.8 2.2-2.1 3.5V70.9c.4 1.7 1.3 3.2 2.7 4.3.1.1.3.2.4.3l.1.1.1.1c1.3.7 2.8 1.1 4.3 1.1h.8l.2.2H9.6l.4-.1c.1 0 .2-.1.3-.1.1 0 .1 0 .2-.1H11.9s.3-.6.6-1.5c1.1-1.3 1.2-2 1.2-2M53.1 76.7H53c-.1 0-.1-.1-.2-.1-.2-.1-.3-.3-.3-.6 0-.2.9-2.6 1.1-3.2h6.7c.4 1.1.8 2.2 1 2.7.1.2.1.4.1.5 0 .3-.1.5-.3.6 0 0-.1.1-.2.1h-.1 3.6c-.5-.2-.8-.6-1.2-1.6l-4.7-12.4h-2.4c-.1.3-4.5 11.9-4.5 11.9-.5 1.3-.8 1.8-1.4 2h2.9v.1zM57 63.8c.9 2.3 2.1 5.4 3 7.9h-6c.9-2.3 2.5-6.7 3-7.9zM147.8 76.7h-.1c-.1 0-.1-.1-.2-.1-.2-.1-.3-.3-.3-.6 0-.2.9-2.6 1.1-3.2h6.7c.4 1.1.8 2.2 1 2.7.1.2.1.4.1.5 0 .3-.1.5-.3.6 0 0-.1.1-.2.1h-.1 3.6c-.5-.2-.8-.6-1.2-1.6l-4.7-12.4h-2.4c-.1.3-4.5 11.9-4.5 11.9-.5 1.3-.8 1.8-1.4 2h2.9v.1zm3.9-12.9c.9 2.3 2.1 5.4 3 7.9h-6c.9-2.3 2.5-6.7 3-7.9zM171.7 72.6c-.9-1-1.7-2-2.5-2.3 1.2-.3 3-1.7 3-3.6 0-2.1-1.3-4-5.4-4h-5.1c.2.1.4.2.5.3.2.3.3.7.3 1.5v10.4c0 .8-.1 1.2-.3 1.5-.1.1-.3.2-.5.3h3.6c-.2-.1-.4-.2-.5-.3-.2-.3-.3-.7-.3-1.5v-4h.9c.6 0 1.3 0 1.8.1.7.1 1.2 1 2.1 2l1.5 1.5c2 2 3.9 3 7.1 2.5-2.4.1-6.2-4.4-6.2-4.4zm-5.6-2.7h-1.5v-6.2h1.9c2.4 0 3.6.6 3.6 3.1.1 2.6-2.2 3.1-4 3.1zM111.4 16.6h-1.7c.8 0 1.5.7 1.5 1.5v30.4l-2.4-1.4V18c0-.7-.6-1.3-1.3-1.4h-1.9c.8 0 1.5.6 1.5 1.5v28l-2.5-1.4V5.1c0-.1-.1-.2-.1-.2l-.9-.5c-.2-.1-.4-.1-.6-.1-.2 0-.5.1-.6.2l-7.1 4.1c-.4.2-.7.6-.7 1.1v30c0 .1-.1.2-.2.3L92 41.2V7.6c0-.1.1-.2.2-.3L99.7 3c.2-.1.4-.1.6-.1.3 0 .6.1.8.2l-1.8-1c-.2-.1-.4-.2-.7-.2-.2 0-.4.1-.6.1l-7 4.1c-.4.2-.7.6-.7 1.1v35l-2.5 1.4V5.2c0-.1.1-.2.2-.3L95.5.6c.2-.1.4-.2.7-.2.3 0 .6.1.8.2l-1.8-1c-.2-.1-.4-.2-.7-.2-.2 0-.5.1-.7.2 0 0-6.9 4-7 4-.4.2-.7.6-.7 1.1v39.9L83.6 46V18c0-.8.7-1.5 1.5-1.5h-1.7c-.8 0-1.5.7-1.5 1.5v29l-2.5 1.4V18c0-.8.7-1.5 1.5-1.5h-1.7c-.8 0-1.5.7-1.5 1.5v31.3c0 .1.1.2.1.2l.9.5c.2.1.4.1.6.1.2 0 .5-.1.6-.2l15.6-9c.3-.2.5-.5.5-.9V9.9c0-.1.1-.2.2-.3l2.3-1.3v33.6c0 .1-.1.2-.2.3l-15.8 9.1c-.2.1-.5.2-.7.2-.3 0-.6-.1-.8-.2l1.8 1c.2.1.4.2.7.2.3 0 .7-.2.7-.2s15.3-8.8 15.4-8.9c.5-.3.6-.8.6-1.1v-35l2.5-1.4v38.4c0 .1-.1.2-.2.3l-15.8 9.1c-.2.1-.5.2-.7.2-.3 0-.6-.1-.8-.2l1.8 1c.2.1.4.2.7.2.2 0 .4-.1.6-.1l6.9-4 6.8 3.9c.2.1.5.2.7.2.2 0 .5-.1.7-.2l1.8-1c-.3.1-.5.2-.8.2-.3 0-.5-.1-.7-.2L97 49.9l2.5-1.4 6.7 3.9c.2.1.5.2.7.2.2 0 .5-.1.7-.2l1.8-1c-.2.1-.5.2-.8.2-.3 0-.5-.1-.7-.2l-6.7-3.9 2.5-1.4 6.8 4c.2.1.4.2.6.2.2 0 .4-.1.6-.1l.9-.5c.1 0 .1-.1.1-.2V18.2c.1-1-.5-1.6-1.3-1.6z"/><g><path class="st0" d="M52.8 94.7c-.7.7-1.6 1.1-2.6 1.1-.9 0-1.8-.3-2.5-1-.9-.9-.9-1.8-.9-3.9 0-2 0-3 .9-3.9.7-.6 1.5-1 2.5-1 1.8 0 3.1 1.2 3.4 2.9h-1c-.3-1.2-1.1-2-2.3-2-.6 0-1.2.3-1.7.7-.6.6-.7 1.3-.7 3.3 0 2 .1 2.7.7 3.3.4.4 1 .7 1.7.7s1.4-.3 1.8-.8c.4-.5.5-1 .5-1.7v-.7h-2.4v-.9h3.4v1.5c0 1.1-.2 1.8-.8 2.4zM64.9 95.8l-2.2-4.3h-2.3v4.3h-1v-9.6h3.7c1.7 0 2.8 1 2.8 2.7 0 1.4-.9 2.3-2.1 2.6l2.3 4.4h-1.2zM63 87.1h-2.6v3.5H63c1.1 0 1.9-.6 1.9-1.8 0-1.1-.8-1.7-1.9-1.7zM77.1 94.9c-.6.7-1.5 1-2.5 1s-1.8-.3-2.5-1c-.9-.9-.9-1.8-.9-3.9 0-2 0-3 .9-3.9.6-.6 1.5-1 2.5-1s1.8.4 2.5 1c.9.9.9 1.8.9 3.9 0 2 0 2.9-.9 3.9zm-.8-7.2c-.4-.4-1-.7-1.7-.7-.6 0-1.2.3-1.7.7-.6.6-.7 1.3-.7 3.3 0 2 .1 2.7.7 3.3.4.4 1 .7 1.7.7.6 0 1.2-.3 1.7-.7.6-.7.7-1.3.7-3.3 0-2.1-.1-2.7-.7-3.3zM87 95.9c-1.9 0-3.4-1.3-3.4-3.3v-6.4h1v6.4c0 1.5.9 2.4 2.3 2.4s2.3-1 2.3-2.4v-6.4h1v6.4c.2 1.9-1.3 3.3-3.2 3.3zM100 91.8h-2.6v4h-1v-9.6h3.6c1.8 0 3 1.1 3 2.8-.1 1.7-1.3 2.8-3 2.8zm-.1-4.7h-2.5v3.8h2.5c1.2 0 2-.7 2-1.9 0-1.3-.8-1.9-2-1.9zM118.6 91.8H116v4h-1v-9.6h3.6c1.8 0 3 1.1 3 2.8 0 1.7-1.2 2.8-3 2.8zm-.1-4.7H116v3.8h2.5c1.2 0 2-.7 2-1.9 0-1.3-.8-1.9-2-1.9zM126.9 95.8v-9.6h1v8.7h4.9v.9h-5.9zM140.5 95.9c-.9 0-1.8-.3-2.5-1-.9-.9-.9-1.8-.9-3.9 0-2 0-3 .9-3.9.7-.6 1.5-1 2.5-1 1.7 0 3 1.1 3.3 2.9h-1.1c-.3-1.2-1.1-1.9-2.3-1.9-.6 0-1.2.2-1.7.7-.6.6-.7 1.3-.7 3.3 0 2 .1 2.7.7 3.3.4.4 1 .7 1.7.7 1.2 0 2.1-.8 2.3-1.9h1c-.1 1.6-1.4 2.7-3.2 2.7z"/></g></svg>