<svg id="Layer_1" xmlns="http://www.w3.org/2000/svg" viewBox="0 0 108 27"><style>.st0{fill:#6D8AAA;}</style><g id="XMLID_80_"><path id="XMLID_86_" class="st0" d="M49.1 13.1c3.4-1.1 4-4 4-6.3 0-3.6-2.5-6.6-9.9-6.6H29.4v26.7h13.8c7.5 0 10.2-3.8 10.2-7.7 0-4.7-4.3-6.1-4.3-6.1zm-4.3 7.5h-8.9v-4.5H45c1.1.1 2 1.1 2 2.2 0 1.2-1 2.3-2.2 2.3zm.4-10.3h-9.3V5.9h9.3C46.3 6.1 47 7 47 8c.1 1.1-.7 2.2-1.8 2.3z"/><path id="XMLID_85_" class="st0" d="M90.9 20.8v-4.7h15.2v-5.8H90.9V6h16.9V.1H84.4v26.8h23.4v-6.1z"/><path id="XMLID_82_" class="st0" d="M80.3 7.2c0-5.8-5-7-9.6-7H56.6v26.7h6.5V16.1h7.2c2 0 3.6 1.7 3.6 3.8v7h6.4v-8.6c0-4-3.9-5.2-3.9-5.2s3.9-1.2 3.9-5.9zm-6 1.2c-.1.9-1 1.8-2.1 1.8h-9.1V6h9.1c1.1 0 1.9.8 2.1 1.9v.5z"/><path id="XMLID_81_" class="st0" d="M13.2 20.3c-4.9-.5-6.6-4.1-6.6-7.1 0-3.7 2.5-6.4 6.4-6.9 1.9-.2 12-.1 12.1-.1h.2V.1H13.6C12.3.2 10.2.3 8 1.2c-2 1-3.8 2.5-5.2 4.3-1.7 2.3-2.6 5.1-2.6 8 0 .9.1 1.8.2 2.7.8 4 3.5 7.4 7.3 9.2 1.3.5 3.3 1.2 7.3 1.4H25.4v-6.4h-.2c-.2 0-8.9.2-12-.1z"/></g></svg>