<svg id="Layer_1" xmlns="http://www.w3.org/2000/svg" xmlns:xlink="http://www.w3.org/1999/xlink" viewBox="0 0 85 85"><style>.st0{fill:#FFFFFF;} .st1{clip-path:url(#XMLID_9_);fill:#6E819F;}</style><circle id="XMLID_7_" class="st0" cx="42.5" cy="42.5" r="42.5"/><defs><path id="XMLID_1_" d="M21.6 32.4h41.8v20.1H21.6z"/></defs><clipPath id="XMLID_9_"><use xlink:href="#XMLID_1_" overflow="visible"/></clipPath><path class="st1" d="M21.6 40.9h19.3c-1.1 1.6-2.8 3.1-2.8 3.1H21.6v-3.1zm0-8.5H23c5.8 0 9.8 1.4 9.8 1.4 1.1.3 1.7.6 1.7.6 3.7 1.5 5.9 3.3 7.4 4.8l.3.3-.8.8h-3c-2.4-1.9-4.9-2.9-4.9-2.9-3.3-1.3-7.1-1.9-11-1.9h-.9v-3.1zM44.1 44s1.7-2.3 2.8-3.1h16.6V44H44.1zm2.5.6c1.2 1.1 2.9 2.2 6 3.3 3.1 1.1 6.4 1.4 8.5 1.5h2.3v3.2h-1.9s-3.5 0-7.3-.9c-1.5-.3-2.6-.7-3.3-1 0 0-1.3-.5-1.8-.8-3-1.4-4.7-2.8-6.2-4.4l.7-.8h3zm-3.4-5.3c1.5-1.5 3.6-3.3 7.3-4.8 0 0 .6-.3 1.7-.6 0 0 4-1.4 9.2-1.4h2v3.2h-1.5c-3.7 0-7.1.5-10.4 1.9 0 0-3 1.1-5.5 3.4h-.1c-.8.6-2.6 3.1-2.6 3.1-.6.7-1.4 1.7-2.4 2.6-1.3 1.1-2.8 2.2-5.1 3.3-.5.2-1.8.8-1.8.8-.7.3-1.8.6-3.3.9-4 1-8.5.9-8.5.9h-.6v-3.2h1.1c2.9 0 6.6-.4 9.7-1.5 3.6-1.3 5.3-2.6 6.6-3.8 0 0 1-.8 2.1-2.3 1.1-1.5 1.5-2 2.1-2.5"/></svg>