<svg id="Layer_1" xmlns="http://www.w3.org/2000/svg" viewBox="0 0 92 41"><style>.st0{fill:#6D8AAA;}</style><g id="XMLID_81_"><path id="XMLID_93_" class="st0" d="M45.3 8v1c.5 0 .9.1 1.2.2.4.1.7.2.9.4.6.5.6 1.5.6 3.3v12c0 2.4.2 5.9-3.2 5.9-1.5 0-3-1.1-3.5-3h-1.2c.5 3.2 2.2 5.4 6.4 5.4 3.6 0 6.7-1.6 6.7-7.2V12.9c0-1.8 0-2.7.6-3.3.4-.3.7-.5 1.8-.6V8H45.3z"/><path id="XMLID_92_" class="st0" d="M73.4 27.7c-1.2 2.6-3.1 2.9-4.8 2.9-1.4 0-2.3-.1-3-.5-.5-.3-.7-1.2-.7-2.7V12.8c0-1.8 0-2.8.6-3.3.4-.3 1-.5 2.1-.6V8H57.2v.9c1.1.1 1.4.3 1.8.6.5.4.6 1.1.6 2.3v16.8c0 1.2-.1 1.9-.6 2.3-.4.3-.7.5-1.8.6v.9h15.7l1.7-4.8h-1.2z"/><path id="XMLID_91_" class="st0" d="M90.6 27.7c-1.2 2.6-3.1 2.9-4.8 2.9-1.4 0-2.3-.1-3-.5-.5-.3-.7-1.2-.7-2.7V12.8c0-1.8 0-2.8.6-3.3.4-.3 1-.5 2.1-.6V8H74.5v.9c1.1.1 1.4.3 1.8.6.5.4.6 1.1.6 2.3v16.8c0 1.2-.1 1.9-.6 2.3-.4.3-.7.5-1.8.6v.9h15.7l1.7-4.8h-1.3z"/><path id="XMLID_90_" class="st0" d="M34 7c-1-2-2.4-4-4.3-5.4-1.4-1-3.1-1.7-4.8-1.8-1.1 0-2.2.3-3.2.8-.7-.3-1.4-.5-2.1-.7-.2 0-.3-.1-.5-.1h-.6c-1.1 0-2.2.3-3.2.8-1-.5-2.1-.7-3.2-.8-1.7 0-3.5.7-4.8 1.8C5.4 3 4.1 4.9 3 7 1.7 9.5.9 12.3.5 15c-.3 1.8-.4 3.5-.4 5.3 0 1.7.1 3.5.4 5.3.4 2.7 1.2 5.5 2.5 8 1 2 2.4 4 4.3 5.4 1.4 1 3.1 1.7 4.8 1.8 1.1 0 2.2-.3 3.2-.8.7.3 1.4.5 2.1.7.2 0 .3.1.5.1h.6c1.1 0 2.2-.3 3.2-.8.5-.2.9-.5 1.4-.8.1-.1.2-.1.3-.2 1.9-1.4 3.2-3.3 4.3-5.4 1.3-2.5 2.1-5.3 2.5-8 .3-1.8.4-3.5.4-5.3 0-1.7-.1-3.5-.4-5.3-.4-2.7-1.2-5.5-2.5-8-1-1.9-2.2-3.7-3.9-5l-1.5 1.8c.2.2.3.4.5.7 2.6 3.9 3.9 8.6 4.2 13.2.1.9.1 1.8.1 2.6 0 .9 0 1.8-.1 2.6-.3 4.7-1.6 9.3-4.2 13.2-.3.5-.7 1-1.1 1.4-.4.5-.9 1.1-1.4 1.5-.5.5-1.1 1-1.7 1.4l-.1.1s-.1 0-.1-.1c-.2-.1-.3-.3-.5-.4-.4-.3-.8-.7-1.2-1.1-.2.1-.4.3-.6.4.2-.1.4-.3.6-.4.1-.1.2-.1.3-.2.5-.4 1.1-.9 1.5-1.4.6-.7 1.2-1.4 1.7-2.1.4-.6.8-1.2 1.1-1.9 1.3-2.5 2.1-5.3 2.5-8 .3-1.8.4-3.5.4-5.3 0-1.7-.1-3.5-.4-5.3-.4-2.7-1.2-5.5-2.5-8-.1-.3-.3-.6-.5-.9-.7 1.2-1.2 2.6-1.7 3.9.8 2.5 1.3 5 1.5 7.6.1.9.1 1.8.1 2.6 0 .9 0 1.8-.1 2.6-.2 3.1-.9 6.3-2.1 9.2-.5 1.1-1 2.2-1.7 3.3-.2.2-.3.5-.5.7-.3.5-.7 1-1.1 1.4-.4.5-.9 1.1-1.4 1.5-.5.5-1.1 1-1.7 1.4l-.1.1c-1.7-1.2-3.1-2.8-4.3-4.5-2.4-3.4-3.7-8-4-12.7-.1-.9-.1-1.8-.1-2.6 0-.9 0-1.8.1-2.6C4 13 5.3 8.3 7.9 4.4 9 2.7 10.5 1.1 12.1-.1c.6.4 1.2 1 1.8 1.5-.1.1-.2.1-.3.2C11.8 3 10.4 4.9 9.4 7c-1.3 2.5-2.1 5.3-2.5 8-.3 1.8-.4 3.5-.4 5.3 0 1.7.1 3.5.4 5.3.4 2.7 1.2 5.5 2.5 8 1 1.9 2.2 3.7 3.9 5l1.5-1.8c-.2-.2-.3-.4-.5-.7-2.6-3.9-3.9-8.6-4.2-13.2-.1-.9-.1-1.7-.1-2.6 0-.9 0-1.8.1-2.6.3-4.7 1.6-9.3 4.2-13.2.3-.5.7-1 1.1-1.4.4-.5.9-1 1.4-1.5.5-.5 1.1-1 1.7-1.4l.1-.1s.1 0 .1.1c.2.1.3.3.5.4.3.1.8.4 1.1.8-.1.1-.2.1-.3.2-.5.4-1 .9-1.5 1.4-.6.7-1.2 1.4-1.7 2.1-.4.6-.8 1.2-1.1 1.9-1.3 2.5-2.1 5.3-2.5 8-.3 1.8-.4 3.5-.4 5.3 0 1.7.1 3.5.4 5.3.4 2.7 1.2 5.5 2.5 8 .1.3.3.6.5.9.7-1.2 1.2-2.5 1.7-3.9-.8-2.5-1.3-5-1.5-7.6-.1-.9-.1-1.8-.1-2.6 0-.9 0-1.8.1-2.6.2-3.1.9-6.3 2.1-9.2.5-1.1 1-2.2 1.7-3.3.2-.2.3-.5.5-.7.3-.5.7-1 1.1-1.4.4-.5.9-1 1.4-1.5.5-.5 1.1-1 1.7-1.4l.1-.1c1.7 1.2 3.1 2.8 4.3 4.5 2.6 3.9 3.9 8.6 4.2 13.2.1.9.1 1.8.1 2.6 0 .9 0 1.8-.1 2.6-.3 4.7-1.6 9.3-4.2 13.2-1.1 1.7-2.6 3.3-4.3 4.5-.6-.4-1.2-1-1.8-1.5-.4.3-.9.6-1.4.8 1 .5 2.1.7 3.2.8 1.7 0 3.5-.7 4.8-1.8 1.9-1.4 3.2-3.3 4.3-5.4 1.3-2.5 2.1-5.3 2.5-8 .3-1.8.4-3.5.4-5.3 0-1.7-.1-3.5-.4-5.3-.5-2.8-1.3-5.6-2.6-8.1z"/><path id="XMLID_89_" class="st0" d="M19.6 38.6l1.5-1.8c-.2-.2-.3-.4-.5-.7-.2-.2-.3-.5-.5-.7-.5.8-1.1 1.5-1.7 2.1.5.4.8.8 1.2 1.1z"/><path id="XMLID_88_" class="st0" d="M15.9 3.7c.2.2.3.4.5.7.2.2.3.5.5.7.5-.8 1.1-1.5 1.7-2.1-.4-.4-.7-.7-1.1-1-.6.5-1.1 1.1-1.6 1.7z"/><path id="XMLID_85_" class="st0" d="M88.8 9.6c.2 0 .2 0 .3.1.1 0 .1.2.2.3l.1.2h.4l-.2-.3c-.1-.1-.1-.2-.1-.2 0-.1-.1-.1-.1-.1s-.1 0-.1-.1c.1 0 .2-.1.3-.1.1-.1.1-.2.1-.3 0-.1 0-.2-.1-.2 0-.1-.1-.1-.1-.1-.1 0-.1-.1-.2-.1h-.8v1.5h.3v-.6zm0-.7h.5s.1 0 .1.1v.2l-.1.1h-.4v-.4z"/><path id="XMLID_82_" class="st0" d="M88.5 10.7c.2.1.5.2.7.2.3 0 .5-.1.7-.2.2-.1.4-.3.5-.5.1-.2.2-.5.2-.7 0-.3-.1-.5-.2-.7-.1-.2-.3-.4-.5-.5-.2-.3-.5-.3-.7-.3-.2 0-.5.1-.7.2-.2.1-.4.3-.5.5-.1.2-.2.5-.2.7 0 .3.1.5.2.7.1.3.2.5.5.6zm-.3-1.9c.1-.2.3-.3.4-.4.2-.1.4-.1.6-.1.2 0 .4.1.6.1.2.1.3.2.4.4.1.2.2.4.2.6 0 .2-.1.4-.2.6-.1.2-.2.3-.4.4-.2.1-.4.2-.6.2-.2 0-.4-.1-.6-.2-.2-.1-.3-.2-.4-.4-.1-.2-.2-.4-.2-.6 0-.2.1-.4.2-.6z"/></g></svg>