<svg id="Layer_1" xmlns="http://www.w3.org/2000/svg" viewBox="0 0 156 391"><style>.st0{fill:#FFFFFF;}</style><path id="XMLID_21_" class="st0" d="M9.9 341.2c1.8 0 3.5.8 4.9 2.4h3.9c-1.6-3.5-4.9-5.7-8.8-5.7-5.3 0-9.5 4.4-9.5 9.7 0 5.3 4.4 9.6 9.8 9.6 3.6 0 7.1-2.3 8.5-5.5h-4c-1.6 1.7-2.9 2.3-4.7 2.3-3.3 0-6.2-3-6.2-6.4 0-3.4 2.7-6.4 6.1-6.4z"/><path id="XMLID_20_" class="st0" d="M37.2 356.9v-18.5h-3.4v7.5h-6.6v-7.5h-3.5v18.5h3.5v-7.8h6.6v7.8z"/><path id="XMLID_19_" class="st0" d="M55.5 354.9c.9-1.1 1.4-2.6 1.4-4.7v-11.8h-3.4v11.8c0 2.6-1.1 3.9-3.2 3.9-1.1 0-2.1-.5-2.6-1.3-.5-.7-.6-1.2-.6-2.6v-11.8h-3.4v11.8c0 1.9.3 3.2 1 4.2 1.2 1.8 3.4 2.9 5.7 2.9 1.9 0 3.8-.9 5.1-2.4z"/><path class="st0" d="M75.6 344.1c0-1.6-.7-3.1-1.9-4.2s-2.6-1.5-4.8-1.5h-5.7V357h3.4v-7.1l5 7.1h4.2l-5-6.8c1.4-.3 2-.6 2.8-1.3 1.2-1.2 2-3 2-4.8zm-6.8 3.1h-2.2v-5.7h2.2c2 0 3.3 1.1 3.3 2.8 0 1.9-1.2 2.9-3.3 2.9z"/><path id="XMLID_16_" class="st0" d="M89.5 341.2c1.8 0 3.5.8 4.9 2.4h3.9c-1.6-3.5-4.9-5.7-8.8-5.7-5.3 0-9.5 4.4-9.5 9.7 0 5.3 4.4 9.6 9.8 9.6 3.6 0 7.1-2.3 8.5-5.5h-4c-1.6 1.7-2.9 2.3-4.7 2.3-3.3 0-6.2-3-6.2-6.4-.1-3.4 2.7-6.4 6.1-6.4z"/><path id="XMLID_15_" class="st0" d="M113.4 356.9h3.4v-18.5h-3.4v7.5h-6.7v-7.5h-3.4v18.5h3.4v-7.8h6.7z"/><path id="XMLID_14_" class="st0" d="M123.3 338.4h3.4V357h-3.4z"/><path id="XMLID_13_" class="st0" d="M136.6 338.4h-3.5v18.5h9.1v-3.2h-5.6z"/><path id="XMLID_12_" class="st0" d="M150.3 338.4h-3.4v18.5h9.1v-3.2h-5.7z"/><path class="st0" d="M45.9 372.7c-1.2-.8-2.1-1-4.8-1h-4.7v18.6h3.4v-7.1H41c2.8 0 3.6-.1 4.6-.8 1.6-1 2.6-2.9 2.6-5 0-2-.8-3.6-2.3-4.7zm-2.7 7c-.5.2-1.3.3-2.3.3h-1.1v-5.1H41c1.4 0 1.6 0 2.1.2 1 .3 1.6 1.2 1.6 2.2.1 1.1-.6 2.1-1.5 2.4z"/><path id="XMLID_9_" class="st0" d="M56.5 371.7h-3.4v18.6h9.1v-3.2h-5.7z"/><path class="st0" d="M73.7 371.7L66 390.3h3.8l2.1-4.8h6.6l2 4.8h3.8l-7.8-18.6h-2.8zm-.6 10.6l2-5.7 2 5.7h-4z"/><path id="XMLID_6_" class="st0" d="M96.3 374.6c1.8 0 3.5.8 4.9 2.4h3.9c-1.6-3.5-4.9-5.7-8.8-5.7-5.3 0-9.5 4.4-9.5 9.7 0 5.3 4.4 9.6 9.8 9.6 3.6 0 7.1-2.3 8.5-5.5h-4c-1.6 1.7-2.9 2.3-4.7 2.3-3.3 0-6.2-3-6.2-6.4 0-3.5 2.8-6.4 6.1-6.4z"/><path id="XMLID_5_" class="st0" d="M110.2 390.3h10v-3.2h-6.6v-4.4h6.3v-3.2h-6.3v-4.6h6.6v-3.2h-10z"/><path id="XMLID_4_" class="st0" d="M73.1 143.8c0-20.1-16.1-36.5-35.7-36.5-10.8 0-20.8 4.9-27.4 13.5-6.1 7.6-8.1 15.1-7.9 27.2h15.7v-2.9c0-13.9 8.3-23.5 20.1-23.5 10.7 0 19.3 9.6 19.3 21.5 0 7.3-3 13.5-10.1 20.8L2.6 209.1v13.2h70.7v-14.4H25.9l31.5-32.3c11.5-11.8 15.7-20.3 15.7-31.8z"/><path id="XMLID_3_" class="st0" d="M2.6 282.6v14.3L154 236.6v-14.3z"/><path id="XMLID_2_" class="st0" d="M154 0L2.6 60.3v14.3L154 14.3z"/><path id="XMLID_1_" class="st0" d="M154 137c-3.8-17.6-18.3-30.3-36.6-30.3-6.6 0-11 1.2-15.9 4.4l4.2-25h44.8V71.7H92.8l-9.5 58 13.7 3c5.2-8.1 11-11.7 18.9-11.7 13.4 0 23.3 11.2 23.3 26 0 14-10.1 25.2-22.8 25.2-11.3 0-20-8.3-22.5-21.8H78c2.2 21.5 17.6 36.2 38.1 36.2 19 0 34-12.7 37.9-31 .6-3 1-6.2 1-9.4s-.3-6.3-1-9.2z"/></svg>