<svg id="Layer_1" xmlns="http://www.w3.org/2000/svg" viewBox="0 0 203 14"><style>.st0{fill:#6D8AAA;}</style><path class="st0" d="M-.1 11.3L4.5 7c.8-.8 1.6-1.5 1.6-2.7 0-1.1-.8-1.9-1.9-1.9-1.4 0-2.1 1.2-2.1 2.5H-.3v-.5C-.3 2 1.6 0 4 0c2.5 0 4.5 1.9 4.5 4.4 0 1.1-.4 2-1 2.9L5.8 9.1l-2.5 2.3h5.3v2.3H0v-2.4zM18.9 2.6h-4.2L14.3 5c.5-.2 1.1-.4 1.7-.4 2.5 0 4.3 2.2 4.3 4.6 0 2.5-2.1 4.7-4.6 4.7-2.3 0-4.5-1.9-4.6-4.3h2.4c.1 1.1 1 1.9 2.1 1.9 1.4 0 2.3-1 2.3-2.4 0-1.2-1-2.3-2.3-2.3-.7 0-1.3.3-1.7.9l-2.1-.6 1.3-7h6v2.5zM42.5 10c-1 2.4-3.6 3.9-6.2 3.9-3.8 0-6.9-3.2-6.9-7S32.5 0 36.2 0c2.7 0 5.3 1.5 6.3 4.1h-2.8c-.8-1-2.2-1.7-3.5-1.7-2.4 0-4.4 2.1-4.4 4.6 0 2.4 2 4.5 4.4 4.5 1.3 0 2.5-.6 3.4-1.5h2.9zM45.7.3h2.5v5.3H53V.3h2.5v13.3H53V8h-4.8v5.6h-2.5V.3zM61.9.3v8.3c0 .6 0 1.2.3 1.8.4.7 1 1.1 1.8 1.1.6 0 1.3-.4 1.7-.9.4-.6.4-1.3.4-2V.3h2.5v8.3c0 1.3-.1 2.6-1 3.6s-2.2 1.7-3.5 1.7c-1.3 0-2.6-.7-3.4-1.6-1-1.1-1.1-2.3-1.1-3.7V.3h2.3zM72.4.3h3.9c1.3 0 2.5.1 3.5.9s1.6 2 1.6 3.3c0 1-.5 2.2-1.1 2.9-.6.7-1.5 1.1-2.4 1.3l3.6 4.9h-3L75 8.5v5.1h-2.5V.3zm3.8 6.3c.6 0 1.5-.1 2-.6.4-.4.6-.9.6-1.4 0-.6-.3-1.2-.7-1.5-.6-.4-1.2-.5-1.8-.5h-1.4v3.9h1.3zM96.8 10c-1 2.4-3.6 3.9-6.2 3.9-3.8 0-6.9-3.2-6.9-7S86.8 0 90.5 0c2.7 0 5.3 1.5 6.3 4.1H94c-.8-1-2.2-1.7-3.5-1.7-2.4 0-4.4 2.1-4.4 4.6 0 2.4 2 4.5 4.4 4.5 1.3 0 2.5-.6 3.4-1.5h2.9zM99.9.3h2.5v5.3h4.8V.3h2.5v13.3h-2.5V8h-4.8v5.6h-2.5V.3zM113.7.3h2.5v13.3h-2.5V.3zM120.2.3h2.5v10.9h4.1v2.4h-6.5V.3zM129.5.3h2.5v10.9h4.1v2.4h-6.5V.3zM145.3 13.6V.3h3.1c1.3 0 2.5-.1 3.6.7 1.1.7 1.8 2 1.8 3.3 0 1.3-.5 2.6-1.6 3.4-1.1.9-2.7.8-4 .8h-.5v5h-2.4zm3-7.4c.6 0 1.3 0 1.9-.1.7-.2 1.2-.9 1.2-1.6 0-.8-.5-1.4-1.3-1.6-.5-.1-1.3-.1-1.8-.1h-.5v3.5h.5zM156.7.3h2.5v10.9h4.1v2.4h-6.5V.3zM170.9.3h1.9l5.6 13.3h-2.7l-1.4-3.4h-4.7l-1.5 3.4h-2.7L170.9.3zm2.4 7.5l-1.4-4-1.4 4h2.8zM192.9 10c-1 2.4-3.6 3.9-6.2 3.9-3.8 0-6.9-3.2-6.9-7s3.1-6.9 6.8-6.9c2.7 0 5.3 1.5 6.3 4.1h-2.8c-.8-1-2.2-1.7-3.5-1.7-2.4 0-4.4 2.1-4.4 4.6 0 2.4 2 4.5 4.4 4.5 1.3 0 2.5-.6 3.4-1.5h2.9zM196.1.3h7.2v2.4h-4.7v3.1h4.5v2.4h-4.5v3.1h4.7v2.4h-7.2V.3z"/></svg>