<svg id="Layer_1" xmlns="http://www.w3.org/2000/svg" xmlns:xlink="http://www.w3.org/1999/xlink" viewBox="36 -11 86 36"><style>.st0{clip-path:url(#SVGID_2_);fill:none;stroke:#1D1D1B;stroke-width:1.2248;stroke-miterlimit:10;} .st1{fill:none;stroke:#1D1D1B;stroke-width:1.2248;stroke-linecap:round;stroke-miterlimit:10;} .st2{clip-path:url(#SVGID_4_);fill:none;stroke:#1D1D1B;stroke-width:5.0759;stroke-miterlimit:10;} .st3{fill:none;stroke:#1D1D1B;stroke-width:1.2248;stroke-miterlimit:10;} .st4{enable-background:new ;} .st5{fill:#1D1D1B;}</style><g id="XMLID_9_"><g id="XMLID_18_"><defs><path id="SVGID_1_" d="M28.1-11H79v66.4H28.1z"/></defs><clipPath id="SVGID_2_"><use xlink:href="#SVGID_1_" overflow="visible"/></clipPath><circle id="XMLID_7_" class="st0" cx="53.4" cy="6.7" r="17"/></g><path id="XMLID_5_" class="st1" d="M53.3-8.3v31.9"/><g id="XMLID_14_"><defs><path id="SVGID_3_" d="M28.1-11H79v66.4H28.1z"/></defs><clipPath id="SVGID_4_"><use xlink:href="#SVGID_3_" overflow="visible"/></clipPath><path id="XMLID_4_" class="st2" d="M53.3-10.3V6.6"/></g><path id="XMLID_2_" class="st3" d="M35.8 6.7h35.4"/><g class="st4" id="XMLID_1_"><path class="st5" d="M77.3 2.6h1.4l5.8 8.6V2.6h1V13h-1l-6.2-9.1V13h-1V2.6zM92.7 2.5c2.9 0 5.5 2.3 5.5 5.4s-2.6 5.4-5.5 5.4-5.5-2.4-5.5-5.3c0-3.4 2.7-5.5 5.5-5.5zm0 9.7c2.4 0 4.5-1.9 4.5-4.4 0-2.4-2-4.4-4.5-4.4-2.3 0-4.4 1.9-4.4 4.5-.1 2.3 2 4.3 4.4 4.3zM99.8 2.6h2.6c1.4 0 2.1.2 2.6.4 1.2.5 1.9 1.7 1.9 3 0 1.5-1.1 3-3.1 3.2l2.9 3.9h-1.3l-3.5-4.7c1.3 0 1.8 0 2.2-.2 1.1-.3 1.7-1.3 1.7-2.2 0-.8-.5-1.7-1.1-2-.6-.3-1.2-.4-2-.4h-1.8V13h-1V2.6zM109.8 3.6h-2.4v-1h5.8v.9h-2.4V13h-1V3.6zM114.4 2.6h1v4.6h5.4V2.6h1V13h-1V8.1h-5.4V13h-1V2.6z"/></g></g></svg>