<svg id="Layer_1" xmlns="http://www.w3.org/2000/svg" xmlns:xlink="http://www.w3.org/1999/xlink" viewBox="0 0 85 85"><style>.st0{fill:#FFFFFF;} .st1{clip-path:url(#XMLID_7_);fill:#6E819F;} .st2{fill:#6E819F;}</style><circle id="XMLID_5_" class="st0" cx="42.5" cy="42.5" r="42.5"/><defs><path id="XMLID_2_" d="M22.3 26.1h40.3v32.8H22.3z"/></defs><clipPath id="XMLID_7_"><use xlink:href="#XMLID_2_" overflow="visible"/></clipPath><path class="st1" d="M53.1 42.5c0 5.8-4.7 10.6-10.6 10.6-5.8 0-10.6-4.7-10.6-10.6 0-5.8 4.7-10.6 10.6-10.6 5.9 0 10.6 4.8 10.6 10.6M42.5 26.1c-9.1 0-16.4 7.3-16.4 16.4 0 9.1 7.3 16.4 16.4 16.4 9.1 0 16.4-7.3 16.4-16.4 0-9-7.3-16.4-16.4-16.4"/><path id="XMLID_1_" class="st2" d="M22.3 39.2h40.3v6.6H22.3z"/></svg>