<svg id="Layer_1" xmlns="http://www.w3.org/2000/svg" viewBox="0 0 16 16"><style>.st0{fill:#FFFFFF;} .st1{fill:#6D8AAA;}</style><path id="XMLID_23_" class="st0" d="M8 14.5c-3.6 0-6.5-2.9-6.5-6.5S4.4 1.5 8 1.5s6.5 2.9 6.5 6.5-2.9 6.5-6.5 6.5z"/><path id="XMLID_20_" class="st0" d="M8 3c2.8 0 5 2.2 5 5s-2.2 5-5 5-5-2.2-5-5 2.2-5 5-5m0-3C3.6 0 0 3.6 0 8s3.6 8 8 8 8-3.6 8-8-3.6-8-8-8z"/><path id="XMLID_17_" class="st1" d="M8 2c3.3 0 6 2.7 6 6s-2.7 6-6 6-6-2.7-6-6 2.7-6 6-6m0-2C3.6 0 0 3.6 0 8s3.6 8 8 8 8-3.6 8-8-3.6-8-8-8z"/></svg>